<svg xmlns="http://www.w3.org/2000/svg"><symbol id="bem" viewBox="0 0 256 212" preserveAspectRatio="xMidYMid"><path d="M0 32.692h59.85v17.603H0V32.692zM0 0h59.85v17.603H0V0zm107.38 65.132H0v17.603h103.356c11.316 0 37.72.251 47.528 16.094v-9.807c-4.778-15.592-18.86-23.89-43.505-23.89zm.25 32.691H0v17.603h103.356c25.147 0 40.99 1.006 47.528 4.527v-7.796c-5.03-12.322-26.153-14.334-43.253-14.334zm-.25 82.986H0v-17.603h103.356c11.316 0 37.72-.251 47.528-16.094v9.807c-4.778 15.592-18.86 23.89-43.505 23.89zm.25-32.691H0v-17.603h103.356c25.147 0 40.99-1.006 47.528-4.527v7.796c-5.03 12.322-26.153 14.334-43.253 14.334zm69.407 63.12H256v-10.814h-76.7c-6.79 0-22.883-.251-28.667-9.556v6.036c2.766 9.304 11.316 14.334 26.404 14.334zm-.251-19.867h78.963v-10.813H179.3c-15.34 0-24.896-.503-28.668-2.766v4.778c3.017 7.544 15.842 8.801 26.153 8.801z" fill="#fff"/></symbol><symbol id="css" viewBox="0 0 256 361" preserveAspectRatio="xMidYMid"><path d="M127.844 360.088L23.662 331.166.445 70.766h255.11l-23.241 260.36-104.47 28.962z" fill="#264DE4"/><path d="M212.417 314.547l19.86-222.49H128V337.95l84.417-23.403z" fill="#2965F1"/><path d="M53.669 188.636l2.862 31.937H128v-31.937H53.669zm-5.752-64.641l2.903 31.937H128v-31.937H47.917zM128 271.58l-.14.037-35.568-9.604-2.274-25.471h-32.06l4.474 50.146 65.421 18.16.147-.04V271.58z" fill="#EBEBEB"/><path d="M60.484 0h38.68v16.176H76.66v16.176h22.506v16.175H60.484V0zm46.417 0h38.681v14.066h-22.505v2.813h22.505v32.352h-38.68V34.46h22.505v-2.813H106.9V0zm46.418 0H192v14.066h-22.505v2.813H192v32.352h-38.681V34.46h22.505v-2.813H153.32V0z" fill="#fff"/><path d="M202.127 188.636l5.765-64.641H127.89v31.937h45.002l-2.906 32.704H127.89v31.937h39.327l-3.708 41.42-35.62 9.614v33.226l65.473-18.145.48-5.396 7.506-84.08.779-8.576z" fill="#FFF"/></symbol><symbol id="foundation" viewBox="0 0 256 380" preserveAspectRatio="xMidYMid"><path d="M255.846 364.169c0 8.577-57.26 15.53-127.895 15.53C57.315 379.7.055 372.746.055 364.17c0-8.578 67.17-15.53 127.896-15.53 72.286 0 127.895 6.952 127.895 15.53" fill="#1A4658"/><path d="M247.93 252.11c-3.959 0-8.222-1.828-11.268-15.835-3.046-14.008-7.613-28.32-7.613-28.32 4.873 0 7.613-2.132 7.613-2.132-3.35-1.524-10.659-6.7-15.53-13.094-4.872-6.395-17.358-16.75-17.358-16.75v-20.705c0-14.009 8.984-24.97 8.984-24.97-6.09 0-8.984 5.48-8.984 5.48v-29.537c0-29.234 14.768-42.327 14.768-42.327-4.567-.304-7.612 1.827-7.612 1.827 2.132-21.62 8.755-28.015 8.755-28.015-24.36-6.395-37.95 7.918-37.95 7.918-2.74-13.094 7.975-20.71 7.975-20.71-12.484-2.74-22.81.914-22.81.914 0-19.184 7.626-25.583 7.626-25.583-38.064 0-59.676 28.62-59.676 28.62-1.522-12.18 1.83-22.849 1.83-22.849-36.845 15.53-46.587 49.923-46.587 49.923-2.436-5.785-2.74-18.92-2.74-18.92S52.126 62.55 49.386 80.21c-2.74 17.662 2.436 68.364 2.436 68.364s-2.435-3.044-7.612-3.653c0 0 5.48 6.09 5.48 19.793 0 0-2.131-1.827-5.785-.913 0 0 5.785 5.176 6.395 14.007 0 0-6.7 4.568-10.354 9.135 0 0-5.786.305-8.831 1.218 0 0 4.873 2.74 5.786 5.177 0 0-14.312 14.617-21.62 26.492 0 0 6.395-3.958 10.962-2.74 0 0-10.05 12.18-13.399 32.278 0 0 4.872-2.435 7.004-1.217 0 0-6.09 12.789-6.395 26.187l-6.699 3.96 5.177 3.654s-3.959 16.443-4.873 25.883c0 0 3.045-3.045 5.481-3.958 0 0 3.35 7.916 7.918 14.007 4.568 6.09 14.922 11.267 21.012 11.267l11.447-.446c-1.42 6.126-4.22 11.32-10.124 11.593l-.655 1.05a6.87 6.87 0 0 0-.364-.016c-.117 1.788-3.727 2.11-4.72 3.35-3.018 3.765-5.319 8.938-6.852 13.55-1.123 3.38-.592 3.38-1.37 6.852-.255 1.136-1.434 2.35-1.827 3.501 3.288-1.104 12.4-1.842 17.2-2.194l.081 4.248s.792.736 2.102 1.27c.046-.01.09-.022.144-.017.445.036.875.101 1.296.206 7.202-.645 12.217.57 20.566-.123 1.624-.193 3.147-.421 4.569-1.23.404-1.209.459-1.283.649-2.843.04-.278.04-.564.108-.903.13-.022.258-.04.385-.06a.96.96 0 0 1 .298-.04c.036-.012.066-.028.106-.032l.396-.034a.415.415 0 0 1 .256-.022c1.512-.135 3.937-.262 5.448-.345 4.91-.008 11.372.558 11.372.558.4-5.505.799-14.045 9.706-38.94l2.208-1.37s27.357 9.64 52.741-.389c2.009 4.944 8.508 21.562 9.53 32.038.874 1.228.777 2.786.806 4.437.025 1.397.143 2.795.18 4.188.913-.125 4.21-.528 8.37-.522 1.51.083 3.936.21 5.448.345a.415.415 0 0 1 .256.022l.396.034c.04.004.07.02.106.031a.967.967 0 0 1 .298.042c.127.018.254.037.385.06.067.338.067.624.109.902.19 1.56.244 1.634.648 2.842.13.074.262.139.394.204 4.546-.577 9.152-.682 13.725-.466 3.598.17 7.134.846 10.674 1.49 0 .033.004.068.004.102.357.038.705.063 1.054.086 1.9.34 3.804.656 5.721.863.037-2.398.024-4.495-.027-6.337 3.814.183 9.335.942 11.65 1.28.92.22 1.665.355 2.448.524.106.031.218.063.315.095l-.012-.027c.786.176 1.634.4 2.753.789-.17-2.06-.155-2.018-.428-4.6-.21-1.998-1.642-8.066-4.322-10.57 0 0 2.92 1.263 3.811 1.765-2.878-3.9-4.277-9.474-13.32-13.318 0 0 1.651-.78 3.161-.976-1.578-.972-2.783-1.354-4.38-1.239.542-1.541 2.93-5.43 4.934-5.929 0 0-1.23-.855-3.24-.193a19.27 19.27 0 0 0-2.18 1.309c-.266.188-.655-.007-.734-.299-.632-2.338-1.043-4.713-1.416-7.099 18.223-.66 20.779-10.009 20.779-10.009 1.522 1.219 1.522 3.959 1.522 3.959 7.916-10.354 7.003-20.708 7.003-20.708 1.828.304 3.35 1.523 3.35 1.523.914-15.835-3.958-42.937-3.958-42.937 2.436 1.218 3.958-.304 3.958-.304-2.74-1.217-3.044-4.263-3.044-4.263 3.959.304 4.568-3.35 4.568-3.35" fill="#EDF7FA"/><path d="M73.719 367s.714-7.702-1.798-13.26c0 0 4.757.323 5.556 12.885 0 0-3.331.387-3.758.374m-23.877-25.972l.03-.236c.017.117.015.207-.03.236m4.454 25.375l-.043-.011.056-.145-.013.156" fill="#CDE9EE"/><path d="M114.851 28.892c-1.522-12.181 1.83-22.85 1.83-22.85-36.846 15.53-46.588 49.923-46.588 49.923-2.436-5.785-2.74-18.92-2.74-18.92S52.126 62.55 49.386 80.21c-2.74 17.662 2.436 68.364 2.436 68.364s-2.435-3.044-7.612-3.653c0 0 5.48 6.09 5.48 19.793 0 0-2.131-1.827-5.785-.913 0 0 5.785 5.176 6.395 14.007 0 0-6.7 4.568-10.354 9.135 0 0-5.786.305-8.831 1.218 0 0 4.873 2.74 5.786 5.177 0 0-14.312 14.617-21.62 26.492 0 0 6.395-3.958 10.962-2.74 0 0-10.05 12.18-13.399 32.278 0 0 4.872-2.435 7.004-1.217 0 0-6.09 12.789-6.395 26.187l-6.699 3.96 5.177 3.654s-3.959 16.443-4.873 25.883c0 0 3.045-3.045 5.481-3.958 0 0 3.35 7.916 7.918 14.007 4.568 6.09 14.922 11.267 21.012 11.267l.771-.105c-.34 2.099-.722 4.19-1.28 6.251-.078.292-.467.487-.734.299a19.151 19.151 0 0 0-2.178-1.31c-2.01-.66-3.241.194-3.241.194 2.004.5 4.392 4.388 4.935 5.93-1.598-.116-2.803.266-4.381 1.238 1.51.197 3.161.976 3.161.976-9.042 3.844-10.442 9.419-13.32 13.318.891-.502 3.81-1.764 3.81-1.764-2.679 2.503-4.11 8.571-4.321 10.569-.272 2.582-.257 2.54-.427 4.6 2.397-.834 3.562-.916 5.502-1.381 2.999-.437 11.378-1.586 14.456-1.266l-.485 5.92.151-.002c1.58-.453 2.868-.393 4.277-.544a71.2 71.2 0 0 1 .24-4.888c-.094-2.778.251-5.308.819-8.128.018-.095.042-.193.061-.288 1.118-3.85 3.063-6.042 4.326-7.39a8.226 8.226 0 0 0 1.095-1.522 15.379 15.379 0 0 0 2.142-3.96c1.252-3.415.715-10.92-1.8-18.245 2.652 3.816 5.069 7.165 6.214 8.31l-.076-9.324s4.872 4.868 9.233 8.547c2.1 1.833 4.689 4.217 6.527 5.167.133.084.253-.802.4.535h-.002c.019 0 .037-.265.056-.254 2.47 1.385 5.01 2.486 7.388 4.025.255.164.515.244.765.416 1.1.758 3.038 1.6 4.78 2.518l1.647 19.449c1.484-20.44 13.132-40.014 13.132-40.014l-.427-.13c-3.604-1.115-29.974-10.238-45.554-42.814-1.026-2.145 5.785 2.435 5.785 2.435-6.395-15.53-8.831-40.5-8.831-40.5 2.131 1.827 4.263 2.131 4.263 2.131-4.567-12.79-6.394-28.624-6.394-42.937-1.218-77.041 27.254-94.703 27.254-94.703-4.872-1.827-10.049-1.675-10.049-1.675 5.634-13.55 24.36-32.43 24.36-32.43-5.024.305-24.665 5.633-24.665 5.633 16.292-42.48 32.736-53.746 32.736-53.746-1.218 10.2 2.74 21.011 2.74 21.011 35.324-43.698 63.705-41.66 63.705-41.66C172.14 3.26 174.53.271 174.53.271c-38.065 0-59.68 28.62-59.68 28.62m99.848 337.867s-.343-11.039-2.854-16.596c0 0 6.547 4.035 6.51 16.786 0 0-3.228-.177-3.656-.19" fill="#CDE9EE"/><path d="M44.356 309.983c4.313-42.238 5.486-124.868 5.486-124.868-9.363 18.5-16.9 52.072-16.9 52.072l1.827 7.308-4.11-1.826c-6.608 22.93-2.137 53.625-.657 62.272 4.203 3.328 9.21 4.45 14.354 5.042m-8.833-.913a666.593 666.593 0 0 0 4.27 19.985c1.143.172 2.428.085 2.428.085 1.048-4.083 1.221-10.404 2.036-18.179-3.002-.351-5.948-.885-8.734-1.891" fill="#ABD8D7"/><path d="M178.633 345.467a.446.446 0 0 1-.533-.207 19.16 19.16 0 0 0-1.08.242l.001-.002c6.282-4.571 6.86-9.406 6.86-9.406-4.168 1.879-8.592 2.58-10.744 2.828 14.521-12.587 16.934-35.959 16.934-35.959-5.948 7.301-14.388 13.471-20.911 17.612l.014-.028s-4.37 2.444-8.41 4.347a.46.46 0 0 0-.487.227c-2.075.962-4.01 1.746-5.149 1.936 0 0 3.363 6.21 4.768 9.559l-.276.223s4.866 11.5 6.637 22.64c.187 1.883.331 3.532.432 4.792.085 1.63.2 2.753.2 2.753 6.434-.952 15.521-.025 15.521-.025-.043 1.048.532 3.564.638 4.02 3.055-.412 6.137-.592 9.22-.618-.04-10.798-.515-28.739-13.635-24.934" fill="#CDE9EE"/><path d="M44.019 313.24c-10.089-1.706-19.244-13.3-19.244-13.3 7.356 7.821 16.513 8.869 16.513 8.869 1.209-8.933-6.175-29.378-6.175-29.378 5.469 6.81 8.46 14.686 10.095 21.133l-1.19 12.676" fill="#83BAC0"/><path d="M66.914 297.424s7.937 13.988 14.902 20.04c7.518 6.532 14.503 15.76 17.472 21.354 0 0 3.768-8.753 5.824-11.8 0 0-22.268-6.527-38.198-29.594m103.589 27.283c1.104-1.553 2.368-2.996 3.572-4.47 1.975-2.418 4.232-4.765 5.89-7.397-2.862 2.142-6.049 3.997-9.307 5.958-9.456 6.407-16.043 8.22-16.043 8.22 2.055 3.047 5.823 11.8 5.823 11.8 1.797-3.386 5.07-8.103 9.037-12.748.333-.462.704-.905 1.028-1.363" fill="#ABD8D7"/><path d="M63.904 89.11c-.866.062-3.637.132-3.637.132C35.16 90.995 16.706 71.54 16.706 71.54s-1.65 15.187 9.256 28.495c10.91 13.308 33.017 15.585 33.017 15.585.718 3.112-.838 10.052-.838 10.052s6.465-7.15 8.106-20.699c1.153-9.494-1.807-15.901-2.343-15.863" fill="#545352"/><path d="M63.904 89.11c-.833.047-3.637.132-3.637.132C35.16 90.995 16.706 71.54 16.706 71.54s11.47 33.194 49.775 30.57c0 0 1.059-6.14-2.577-13" fill="#6E7979"/><path d="M189.257 89.11c.865.062 3.636.132 3.636.132C218 90.995 236.454 71.54 236.454 71.54s1.65 15.187-9.256 28.495c-10.91 13.308-33.017 15.585-33.017 15.585-.718 3.112.838 10.052.838 10.052s-6.465-7.15-8.106-20.699c-1.153-9.494 1.808-15.901 2.344-15.863" fill="#545352"/><path d="M189.257 89.11c.832.047 3.636.132 3.636.132C218 90.995 236.454 71.54 236.454 71.54s-11.47 33.194-49.775 30.57c0 0-1.059-6.14 2.578-13" fill="#6E7979"/><path d="M50.799 201.559s-18.047 64.861 0 106.428V201.559m179.697 102.6c-8.908 6.797-18.175 7.227-18.175 7.227-.413-8.88 9.294-28.293 9.294-28.293a21.104 21.104 0 0 0-5.445 4.612l-.063-6.515 7.003-5.785-5.632-4.568 7.155-28.777-6.851 4.568s-2.131-40.956-.61-58.618c0 0-8.678-8.68-12.94-12.181 0 0 .805 12.61 1.724 32.758 3.89 16.163 9.93 49.611 2.415 79.029.087 5.963.151 12.018.186 18.132 0 0 3.745 13.01 4.962 22.145 0 0 1.218.343 3.045.039l-.138-13.99c9.409-2.842 14.07-9.783 14.07-9.783m-84.428-125.594c0 6.918 4.43 12.526 9.897 12.526 5.466 0 9.898-5.608 9.898-12.526 0-6.92-4.432-12.527-9.898-12.527-5.467 0-9.897 5.608-9.897 12.527" fill="#CDE9EE"/><path d="M146.373 175.219c0 6.811 4.362 12.333 9.745 12.333 5.382 0 9.745-5.522 9.745-12.333 0-6.812-4.363-12.333-9.745-12.333-5.383 0-9.745 5.521-9.745 12.333" fill="#FFF"/><path d="M153.53 168.86a3.815 3.815 0 0 0-.13.954c0 1.737 1.132 3.143 2.527 3.143 1.241 0 2.268-1.112 2.482-2.578.796 1.044 1.287 2.45 1.287 4.002 0 3.217-2.096 5.824-4.682 5.824-2.585 0-4.682-2.607-4.682-5.824 0-2.57 1.34-4.748 3.198-5.52" fill="#474746"/><path d="M98.563 178.565c0 6.918 4.431 12.526 9.898 12.526 5.466 0 9.897-5.608 9.897-12.526 0-6.92-4.431-12.527-9.897-12.527-5.467 0-9.898 5.608-9.898 12.527" fill="#CDE9EE"/><path d="M98.869 175.219c0 6.811 4.362 12.333 9.745 12.333 5.382 0 9.744-5.522 9.744-12.333 0-6.812-4.362-12.333-9.744-12.333-5.383 0-9.745 5.521-9.745 12.333" fill="#FFF"/><path d="M107.854 168.86a3.815 3.815 0 0 0-.131.954c0 1.737 1.131 3.143 2.527 3.143 1.24 0 2.268-1.112 2.482-2.578.796 1.044 1.287 2.45 1.287 4.002 0 3.217-2.097 5.824-4.682 5.824-2.586 0-4.682-2.607-4.682-5.824 0-2.57 1.34-4.748 3.199-5.52" fill="#474746"/><path d="M181.728 188.393c-.621 1.87-2.73 2.366-8.738 3.527l-.41.08c-5.886 1.13-16.41.982-22.175.14a30.831 30.831 0 0 1-.717-.11c-5.343-.904-5.951-1.596-7.67-4.365-1.774-2.866-2.865-11.282-3.066-12.941l-.01-.084c-.213-1.754-.319-2.632 1.934-3.64 3.03-1.36 16.482-3.258 21.993-3.506 4.352-.192 13.576.414 17.793 1.03.662.098 1.151.187 1.454.267.486.129 2.272.998 2.181 2.897-.118 2.504-1.73 14.179-2.57 16.705zm-58.665-13.753l-.01.084c-.201 1.66-1.292 10.075-3.067 12.94-1.718 2.77-2.326 3.462-7.67 4.365-.227.039-.467.075-.717.11-5.763.843-16.288.99-22.175-.14l-.409-.079c-6.008-1.161-8.117-1.658-8.738-3.527-.84-2.526-2.451-14.2-2.57-16.705-.09-1.9 1.696-2.768 2.182-2.897.302-.08.792-.17 1.453-.267 4.218-.616 13.441-1.222 17.793-1.03 5.512.248 18.963 2.146 21.993 3.505 2.254 1.009 2.148 1.887 1.935 3.641zm66.38-11.116c-4.413-.645-12.116-1.376-21.362-.905-12.032.62-22.341 2.29-28.5 3.287-1.838.298-3.283.533-4.385.68l-1.202.162c-1.351.186-2.237.304-2.992.341-.754-.037-1.64-.155-2.99-.34l-1.204-.164c-1.101-.146-2.546-.38-4.385-.679-6.158-.997-16.467-2.668-28.5-3.287-9.245-.471-16.948.26-21.361.905 0 0-4.71.6-8.738 2.303l.768 5.12s4.256-1.014 8.413-1.569c.772 7.22 2.276 16.495 2.276 16.495l.024.288c.114.468.22.922.335 1.417.857 3.647 1.707 5.792 5.128 7.078 3.36 1.268 11.308 2.443 19.325 2.856 2.981.154 6.365-.03 9.787-.528 5.075-.74 9.666-2.107 11.42-3.404 2.552-1.886 3.917-6.632 4.82-9.773l.271-.925c.32-1.071.597-2.195.865-3.286.386-1.566.783-3.184 1.124-3.743.061-.097.347-.435 1.463-.599.345-.05.733-.076 1.16-.081.426.005.814.032 1.16.081 1.114.164 1.4.502 1.462.6.34.558.738 2.176 1.123 3.742.269 1.09.546 2.215.866 3.286l.27.925c.904 3.14 2.27 7.887 4.821 9.773 1.754 1.297 6.344 2.663 11.42 3.404 3.421.498 6.806.682 9.786.528 8.018-.413 15.966-1.588 19.326-2.856 3.42-1.286 4.27-3.43 5.128-7.078.115-.495.22-.95.335-1.417l.024-.288s1.503-9.276 2.276-16.495c4.157.555 8.413 1.569 8.413 1.569l.768-5.12c-4.028-1.704-8.738-2.303-8.738-2.303z" fill="#545352"/><path d="M111.516 150.56s-11.008-5.25-17.309 4.498c0 0-.65-9.694 8.24-10.777 8.89-1.085 9.069 6.278 9.069 6.278m-4.129-14.243s-10.205-4.816-14.854 4.44c0 0-1.519-8.087 5.764-10.039s9.09 5.599 9.09 5.599m43.561 20.187s8.549-4.077 13.442 3.494c0 0 .505-7.528-6.399-8.37-6.905-.842-7.043 4.876-7.043 4.876m6.079-13.483s8.65-1.401 10.132 6.505c0 0 2.871-5.708-2.144-8.73-5.016-3.023-7.988 2.224-7.988 2.224" fill="#A0D1DE"/><path d="M110.75 227.355s6.04-4.06 9.605-4.618c0 0 .778 7.659 4.321 11.433 0 0 7.646-6.891 15.207-7.381 0 0 1.952 4.2 5.12 5.757l-.017.049c1.143.714 2.544 1.436 3.901 1.737 0 0 4.34-2.626 5.595-7.422 0 0 .418 10.125-5.938 15.644 0 0-4.846-2.365-8.338-6.151-1.049-1.021-2.14-2.21-2.668-3.175 0 0-11.214 7.933-11.623 12.456 0 0-8.095-7.891-10.855-13.972 0 0-5.402 1.705-6.9 2.804 0 0-4.342-7.101-5.224-13.51 0 0 5.222 4.988 7.814 6.349" fill="#B2DCE5"/><path d="M131.133 207.454c-.448-.096 11.373.818 22.981.405 0 0 .62-2.214 1.51-3.43 0 0-.193 3.726.85 4.49 0 0-5.809 2.286-11.667 2.269 0 0 6.383-1.065 8.524-2.167 0 0-11.648.648-22.198-1.567" fill="#545352"/></symbol><symbol id="git" viewBox="0 0 256 256" preserveAspectRatio="xMidYMid"><path d="M251.172 116.594L139.4 4.828c-6.433-6.437-16.873-6.437-23.314 0l-23.21 23.21 29.443 29.443c6.842-2.312 14.688-.761 20.142 4.693 5.48 5.489 7.02 13.402 4.652 20.266l28.375 28.376c6.865-2.365 14.786-.835 20.269 4.657 7.663 7.66 7.663 20.075 0 27.74-7.665 7.666-20.08 7.666-27.749 0-5.764-5.77-7.188-14.235-4.27-21.336l-26.462-26.462-.003 69.637a19.82 19.82 0 0 1 5.188 3.71c7.663 7.66 7.663 20.076 0 27.747-7.665 7.662-20.086 7.662-27.74 0-7.663-7.671-7.663-20.086 0-27.746a19.654 19.654 0 0 1 6.421-4.281V94.196a19.378 19.378 0 0 1-6.421-4.281c-5.806-5.798-7.202-14.317-4.227-21.446L81.47 39.442 4.83 116.077c-6.44 6.443-6.44 16.884 0 23.322l111.774 111.768c6.435 6.438 16.873 6.438 23.316 0l111.251-111.249c6.438-6.44 6.438-16.887 0-23.324" fill="#DE4C36"/></symbol><symbol id="gulp" viewBox="0 0 256 566" preserveAspectRatio="xMidYMid"><path d="M197.28 548.749l5.427-90.43 14.985-25.58s-34.106 13.952-91.205 13.952c-57.1 0-90.689-13.694-90.689-13.694l16.794 27.904 5.941 87.848c0 9.418 31.059 17.052 69.374 17.052 38.313 0 69.373-7.634 69.373-17.052m-17.119-422.295l11.391-45.025 63.081-66.376L238.007.892l-66.784 70.707-13.226 53.793a886.14 886.14 0 0 0-29.873-.497c-70.336 0-127.355 8.016-127.355 17.902 0 9.887 57.019 17.902 127.355 17.902 70.335 0 127.353-8.015 127.353-17.902 0-7.28-30.924-13.546-75.316-16.343" fill="#D34A47"/><path d="M173.535 151.669s-2.467.553-9.724.584c-7.259.03-12.413-.047-14.466-1.917-.552-.502-.854-1.499-.851-2.174.006-1.285.918-2.042 2.08-2.516l1.099 1.724c-.478.165-.751.36-.752.568-.004.976 7.422 1.644 13.102 1.572 5.681-.07 12.545-.538 12.551-1.5 0-.291-.519-.565-1.422-.781l1.094-1.712c1.472.457 2.757 1.34 2.754 2.868-.014 2.598-3.32 2.993-5.465 3.284" fill="#FFF"/><path d="M254.509 15.184c1.586-1.832-.821-6.518-5.376-10.465C244.576.774 239.596-.94 238.007.892c-1.587 1.832.821 6.518 5.378 10.463 4.555 3.946 9.537 5.662 11.124 3.829m-60.263 312.681c-1.495-14.384 31.462-35.216 23.004-35.883-18.208 1.041-27.27 21.338-36.431 42.596-3.357 7.791-14.844 41.013-22.378 36.923-7.532-4.088 9.765-31.407 14.613-47.631-5.594 4.102-26.109 20.041-31.396 5.114-8.5 7.219-26.663 11.13-24.614-7.833-4.522 8.01-14.671 19.193-26.853 14.546-15.998-6.101 9.27-57.062 15.553-54.491 6.284 2.57-1.268 14.179-3.246 18.687-4.35 9.921-9.375 22.393-6.018 24.946 5.751 4.374 21.401-16.547 21.749-17.007 2.927-3.867 11.266-29.166 17.987-26.261 6.721 2.905-16.764 36.308-7.983 42.937 1.771 1.338 9.017-.825 13.425-5.594 2.852-3.085 1.871-9.918 11.378-32.59 9.507-22.671 17.98-50.905 24.5-48.754 6.52 2.15 1.146 16.641-1.193 22.043-10.976 25.354-29.956 67.241-21.005 64.07 8.951-3.17 13.612-3.356 22.377-13.613 8.765-10.257 8.361-27.152 14.203-26.793 5.844.36 4.863 5.777 3.446 9.902 5.75-6.58 27.256-20.438 32.448-6.713 6.15 16.249-30.769 39.72-21.564 38.523 8.975-1.167 23.515-10.376 29.723-18.749l17.088-153.626s-17.195 14.23-126.589 14.23c-109.395 0-124.811-13.934-124.811-13.934l14.548 140.224c7.722-21.947 26.059-66.339 54.963-64.849 13.148.678 30.7 25.995 15.665 26.853-6.364.362-7.01-12.637-14.546-14.546-5.438-1.378-13.009 3.043-17.902 7.833-9.758 9.55-30.745 47.229-27.972 66.014 3.533 23.949 33.048-8.322 38.042-17.903 3.517-6.749 5.893-26.745 13.585-24.647 7.693 2.098-.671 22.734-6.247 40.979-6.264 20.487-9.557 42.098-17.408 39.612-7.852-2.484 4.938-28.932 4.475-33.566-7.38 6.809-20.976 24.047-38.37 15.515l9.035 87.078s24.013 18.973 96.35 18.973c72.337 0 97.239-18.677 97.239-18.677l11.219-100.857c-9.179 8.938-38.229 24.81-40.089 6.919" fill="#D34A47"/></symbol><symbol id="html" viewBox="0 0 256 361" preserveAspectRatio="xMidYMid"><path d="M255.555 70.766l-23.241 260.36-104.47 28.962-104.182-28.922L.445 70.766h255.11z" fill="#E44D26"/><path d="M128 337.95l84.417-23.403 19.86-222.49H128V337.95z" fill="#F16529"/><path d="M82.82 155.932H128v-31.937H47.917l.764 8.568 7.85 88.01H128v-31.937H85.739l-2.919-32.704zm7.198 80.61h-32.06l4.474 50.146 65.421 18.16.147-.04V271.58l-.14.037-35.568-9.604-2.274-25.471z" fill="#EBEBEB"/><path d="M24.18 0h16.23v16.035h14.847V0h16.231v48.558h-16.23v-16.26H40.411v16.26h-16.23V0zm68.65 16.103H78.544V0h44.814v16.103h-14.295v32.455h-16.23V16.103h-.001zM130.47 0h16.923l10.41 17.062L168.203 0h16.93v48.558h-16.164V24.49l-11.166 17.265h-.28L146.35 24.49v24.068h-15.88V0zm62.74 0h16.235v32.508h22.824v16.05h-39.06V0z" fill="#fff"/><path d="M127.89 220.573h39.327l-3.708 41.42-35.62 9.614v33.226l65.473-18.145.48-5.396 7.506-84.08.779-8.576H127.89v31.937zm0-64.719v.078h77.143l.64-7.178 1.456-16.191.763-8.568H127.89v31.86z" fill="#FFF"/></symbol><symbol id="internetexplorer" viewBox="0 0 256 252" preserveAspectRatio="xMidYMid"><path d="M256 131.593c0-20.238-5.232-39.25-14.408-55.772 39.11-88.514-41.906-75.55-46.417-74.667-17.164 3.359-33.044 8.751-47.691 15.587-2.16-.122-4.334-.189-6.523-.189-54.665 0-100.423 38.128-112.134 89.241C57.639 73.47 77.802 60.428 89.877 55.21a274.318 274.318 0 0 0-5.67 5.218c-.618.583-1.213 1.175-1.822 1.761a284.903 284.903 0 0 0-3.638 3.545c-.71.707-1.4 1.42-2.1 2.133a307.038 307.038 0 0 0-3.145 3.235c-.734.77-1.45 1.541-2.17 2.312a286.466 286.466 0 0 0-2.865 3.104c-.73.807-1.45 1.613-2.168 2.422a319.307 319.307 0 0 0-4.796 5.52 331.84 331.84 0 0 0-2.45 2.927c-.714.864-1.426 1.726-2.125 2.589a341.74 341.74 0 0 0-2.234 2.794c-.716.902-1.431 1.802-2.13 2.703-.666.857-1.312 1.711-1.963 2.566-.735.967-1.476 1.933-2.191 2.894-.512.688-1.003 1.37-1.506 2.055a356.843 356.843 0 0 0-12.449 18.128c-.01.014-.02.028-.027.043a367.82 367.82 0 0 0-2.875 4.557c-.05.081-.102.163-.152.246a361.864 361.864 0 0 0-2.719 4.458l-.094.155a369.532 369.532 0 0 0-6.537 11.338C11.69 160.689 6.646 173.807 6.428 174.586c-32.718 116.97 69.396 67.575 83.645 60.201 15.343 7.58 32.615 11.846 50.888 11.846 50.021 0 92.58-31.93 108.422-76.519h-60.446c-8.944 15.11-26.163 25.345-45.945 25.345-28.984 0-52.479-21.96-52.479-49.05h164.54c.624-4.851.947-9.796.947-14.816zM234.51 18.386c9.907 6.687 17.852 17.187 4.207 52.55-13.088-21.048-32.778-37.559-56.181-46.634 10.646-5.141 37.01-16.016 51.974-5.916zM23.98 234.552c-8.07-8.275-9.496-28.429 8.31-65.154 8.985 25.835 26.916 47.482 50.092 61.22-11.526 6.345-42.126 20.629-58.402 3.934zm66.279-119.601c.92-26.329 23.834-47.41 51.987-47.41 28.153 0 51.068 21.081 51.988 47.41H90.259z" fill="#1EBBEE"/></symbol><symbol id="sass" viewBox="0 0 256 192" preserveAspectRatio="xMidYMid"><path d="M220.281 110.514c-8.906.046-16.647 2.191-23.128 5.362-2.379-4.71-4.757-8.906-5.176-11.984-.467-3.59-1.026-5.782-.467-10.072.56-4.29 3.078-10.399 3.031-10.865-.046-.466-.56-2.658-5.689-2.704-5.129-.047-9.559.979-10.072 2.331-.513 1.352-1.492 4.43-2.145 7.6-.886 4.664-10.258 21.31-15.62 30.03-1.726-3.403-3.218-6.388-3.545-8.766-.466-3.59-1.026-5.782-.466-10.072.56-4.29 3.078-10.398 3.031-10.865-.047-.466-.56-2.658-5.689-2.704-5.13-.047-9.56.979-10.072 2.331-.513 1.353-1.073 4.523-2.145 7.601-1.073 3.078-13.523 30.87-16.787 38.05a214.726 214.726 0 0 1-4.15 8.627s-.047.14-.187.373a117.773 117.773 0 0 1-1.398 2.658v.046c-.7 1.26-1.446 2.425-1.819 2.425-.28 0-.793-3.357.093-7.927 1.865-9.652 6.295-24.667 6.249-25.18 0-.28.839-2.891-2.891-4.244-3.638-1.352-4.943.886-5.27.886-.326 0-.56.793-.56.793s4.058-16.88-7.74-16.88c-7.367 0-17.533 8.067-22.569 15.341a6269.96 6269.96 0 0 0-17.16 9.373c-2.75 1.539-5.595 3.078-8.253 4.523-.187-.186-.373-.42-.56-.606-14.269-15.248-40.661-26.02-39.542-46.49.42-7.461 2.984-27.046 50.687-50.827 39.262-19.352 70.505-13.99 75.914-2.099 7.74 16.974-16.74 48.496-57.309 53.065-15.481 1.726-23.595-4.243-25.646-6.481-2.145-2.332-2.472-2.472-3.265-2.005-1.305.7-.466 2.798 0 4.01 1.213 3.17 6.202 8.766 14.642 11.518 7.461 2.424 25.6 3.777 47.563-4.71 24.574-9.513 43.786-35.952 38.144-58.101-5.643-22.476-42.947-29.89-78.246-17.347C61.086 13.99 38.33 25.74 21.963 41.035 2.518 59.22-.56 75.028.699 81.65c4.524 23.501 36.932 38.796 49.895 50.127-.653.373-1.26.7-1.772.98-6.482 3.217-31.196 16.133-37.351 29.796-6.994 15.481 1.12 26.58 6.482 28.071 16.647 4.617 33.76-3.683 42.946-17.393 9.186-13.709 8.067-31.522 3.824-39.682-.047-.093-.093-.187-.187-.28 1.679-.979 3.404-2.005 5.083-2.984a247.933 247.933 0 0 1 9.373-5.27c-1.586 4.337-2.752 9.513-3.311 16.974-.7 8.767 2.89 20.144 7.6 24.62 2.099 1.96 4.57 2.006 6.156 2.006 5.502 0 7.974-4.57 10.725-9.979 3.357-6.621 6.388-14.315 6.388-14.315s-3.777 20.797 6.482 20.797c3.73 0 7.507-4.85 9.186-7.321v.046s.093-.14.28-.466c.373-.606.606-.98.606-.98v-.092c1.492-2.612 4.85-8.534 9.839-18.373 6.435-12.683 12.637-28.537 12.637-28.537s.56 3.87 2.471 10.305c1.12 3.777 3.45 7.927 5.316 11.937-1.492 2.099-2.425 3.264-2.425 3.264l.047.047c-1.213 1.585-2.518 3.31-3.964 4.99-5.083 6.061-11.144 13.01-11.984 15.014-.98 2.378-.746 4.104 1.12 5.503 1.352 1.026 3.776 1.165 6.248 1.026 4.57-.327 7.787-1.446 9.372-2.145 2.472-.886 5.363-2.239 8.067-4.244 4.99-3.684 8.02-8.953 7.741-15.9-.14-3.824-1.399-7.648-2.938-11.239.467-.652.886-1.305 1.353-1.958 7.88-11.518 13.989-24.155 13.989-24.155s.56 3.87 2.471 10.306c.933 3.264 2.845 6.808 4.523 10.258-7.414 6.016-11.984 13.01-13.616 17.58-2.937 8.487-.653 12.31 3.684 13.196 1.958.42 4.756-.513 6.808-1.399 2.611-.839 5.689-2.284 8.627-4.43 4.99-3.683 9.792-8.813 9.512-15.76-.14-3.171-.979-6.296-2.145-9.327 6.295-2.61 14.409-4.056 24.76-2.844 22.197 2.611 26.58 16.46 25.74 22.29-.839 5.828-5.502 8.999-7.04 9.978-1.54.98-2.052 1.306-1.912 2.005.186 1.026.932.98 2.238.793 1.819-.326 11.658-4.71 12.077-15.435.7-13.709-12.357-28.677-35.439-28.537zM49.055 168.242c-7.368 8.02-17.626 11.051-22.056 8.487-4.756-2.752-2.891-14.596 6.155-23.082 5.502-5.176 12.59-9.98 17.3-12.917 1.072-.653 2.658-1.585 4.57-2.751.326-.187.513-.28.513-.28l1.119-.7c3.31 12.124.14 22.803-7.601 31.243zm53.625-36.465c-2.565 6.249-7.927 22.243-11.191 21.357-2.798-.746-4.524-12.87-.56-24.854 2.005-6.016 6.248-13.197 8.72-15.994 4.01-4.477 8.44-5.97 9.512-4.15 1.353 2.378-4.896 19.724-6.481 23.641zm44.252 21.17c-1.073.56-2.098.933-2.565.653-.326-.187.467-.933.467-.933s5.549-5.968 7.74-8.673c1.26-1.585 2.751-3.45 4.337-5.549v.606c0 7.135-6.902 11.938-9.98 13.896zm34.133-7.787c-.793-.56-.653-2.425 2.005-8.254 1.026-2.285 3.45-6.108 7.601-9.792.466 1.492.793 2.938.746 4.29-.047 9-6.481 12.357-10.352 13.756z" fill="#CD6799"/></symbol></svg>