<svg xmlns="http://www.w3.org/2000/svg"><symbol id="bem" viewBox="0 0 256 212" preserveAspectRatio="xMidYMid"><path d="M0 32.692h59.85v17.603H0V32.692zM0 0h59.85v17.603H0V0zm107.38 65.132H0v17.603h103.356c11.316 0 37.72.251 47.528 16.094v-9.807c-4.778-15.592-18.86-23.89-43.505-23.89zm.25 32.691H0v17.603h103.356c25.147 0 40.99 1.006 47.528 4.527v-7.796c-5.03-12.322-26.153-14.334-43.253-14.334zm-.25 82.986H0v-17.603h103.356c11.316 0 37.72-.251 47.528-16.094v9.807c-4.778 15.592-18.86 23.89-43.505 23.89zm.25-32.691H0v-17.603h103.356c25.147 0 40.99-1.006 47.528-4.527v7.796c-5.03 12.322-26.153 14.334-43.253 14.334zm69.407 63.12H256v-10.814h-76.7c-6.79 0-22.883-.251-28.667-9.556v6.036c2.766 9.304 11.316 14.334 26.404 14.334zm-.251-19.867h78.963v-10.813H179.3c-15.34 0-24.896-.503-28.668-2.766v4.778c3.017 7.544 15.842 8.801 26.153 8.801z" fill="#fff"/></symbol><symbol id="codefactor" viewBox="0 0 256 184" preserveAspectRatio="xMidYMid"><path fill="#EB2926" d="M21.062 0h32.815v24.785H21.062z"/><path fill="#F26925" d="M55.273 0h69.004v24.785H55.273z"/><path fill="#A8CF38" d="M126.138 0h129.047v24.785H126.138z"/><path fill="#F26925" d="M167.796 52.945h58.996V77.73h-58.996z"/><path fill="#EB2926" d="M104.611 52.945h61.207V77.73h-61.207z"/><path fill="#F26925" d="M22.225 104.727h59.229v24.785H22.225z"/><path fill="#0BB1DC" d="M82.735 104.727h83.2v24.785h-83.2z"/><path fill="#EB2926" d="M167.796 104.727h85.644v24.785h-85.644z"/><path fill="#FBEC06" d="M109.615 158.255h71.796v24.785h-71.796z"/><path fill="#0BB1DC" d="M184.087 158.255h40.611v24.785h-40.611z"/><path fill="#A8CF38" d="M.815 158.255h106.589v24.785H.815z"/><path fill="#0BB1DC" d="M2.211 52.945h101.236V77.73H2.211z"/></symbol><symbol id="git" viewBox="0 0 256 256" preserveAspectRatio="xMidYMid"><path d="M251.172 116.594L139.4 4.828c-6.433-6.437-16.873-6.437-23.314 0l-23.21 23.21 29.443 29.443c6.842-2.312 14.688-.761 20.142 4.693 5.48 5.489 7.02 13.402 4.652 20.266l28.375 28.376c6.865-2.365 14.786-.835 20.269 4.657 7.663 7.66 7.663 20.075 0 27.74-7.665 7.666-20.08 7.666-27.749 0-5.764-5.77-7.188-14.235-4.27-21.336l-26.462-26.462-.003 69.637a19.82 19.82 0 0 1 5.188 3.71c7.663 7.66 7.663 20.076 0 27.747-7.665 7.662-20.086 7.662-27.74 0-7.663-7.671-7.663-20.086 0-27.746a19.654 19.654 0 0 1 6.421-4.281V94.196a19.378 19.378 0 0 1-6.421-4.281c-5.806-5.798-7.202-14.317-4.227-21.446L81.47 39.442 4.83 116.077c-6.44 6.443-6.44 16.884 0 23.322l111.774 111.768c6.435 6.438 16.873 6.438 23.316 0l111.251-111.249c6.438-6.44 6.438-16.887 0-23.324" fill="#fff"/></symbol><symbol id="gulp" viewBox="0 0 256 566" preserveAspectRatio="xMidYMid"><path d="M197.28 548.749l5.427-90.43 14.985-25.58s-34.106 13.952-91.205 13.952c-57.1 0-90.689-13.694-90.689-13.694l16.794 27.904 5.941 87.848c0 9.418 31.059 17.052 69.374 17.052 38.313 0 69.373-7.634 69.373-17.052m-17.119-422.295l11.391-45.025 63.081-66.376L238.007.892l-66.784 70.707-13.226 53.793a886.14 886.14 0 0 0-29.873-.497c-70.336 0-127.355 8.016-127.355 17.902 0 9.887 57.019 17.902 127.355 17.902 70.335 0 127.353-8.015 127.353-17.902 0-7.28-30.924-13.546-75.316-16.343" fill="#D34A47"/><path d="M173.535 151.669s-2.467.553-9.724.584c-7.259.03-12.413-.047-14.466-1.917-.552-.502-.854-1.499-.851-2.174.006-1.285.918-2.042 2.08-2.516l1.099 1.724c-.478.165-.751.36-.752.568-.004.976 7.422 1.644 13.102 1.572 5.681-.07 12.545-.538 12.551-1.5 0-.291-.519-.565-1.422-.781l1.094-1.712c1.472.457 2.757 1.34 2.754 2.868-.014 2.598-3.32 2.993-5.465 3.284" fill="#FFF"/><path d="M254.509 15.184c1.586-1.832-.821-6.518-5.376-10.465C244.576.774 239.596-.94 238.007.892c-1.587 1.832.821 6.518 5.378 10.463 4.555 3.946 9.537 5.662 11.124 3.829m-60.263 312.681c-1.495-14.384 31.462-35.216 23.004-35.883-18.208 1.041-27.27 21.338-36.431 42.596-3.357 7.791-14.844 41.013-22.378 36.923-7.532-4.088 9.765-31.407 14.613-47.631-5.594 4.102-26.109 20.041-31.396 5.114-8.5 7.219-26.663 11.13-24.614-7.833-4.522 8.01-14.671 19.193-26.853 14.546-15.998-6.101 9.27-57.062 15.553-54.491 6.284 2.57-1.268 14.179-3.246 18.687-4.35 9.921-9.375 22.393-6.018 24.946 5.751 4.374 21.401-16.547 21.749-17.007 2.927-3.867 11.266-29.166 17.987-26.261 6.721 2.905-16.764 36.308-7.983 42.937 1.771 1.338 9.017-.825 13.425-5.594 2.852-3.085 1.871-9.918 11.378-32.59 9.507-22.671 17.98-50.905 24.5-48.754 6.52 2.15 1.146 16.641-1.193 22.043-10.976 25.354-29.956 67.241-21.005 64.07 8.951-3.17 13.612-3.356 22.377-13.613 8.765-10.257 8.361-27.152 14.203-26.793 5.844.36 4.863 5.777 3.446 9.902 5.75-6.58 27.256-20.438 32.448-6.713 6.15 16.249-30.769 39.72-21.564 38.523 8.975-1.167 23.515-10.376 29.723-18.749l17.088-153.626s-17.195 14.23-126.589 14.23c-109.395 0-124.811-13.934-124.811-13.934l14.548 140.224c7.722-21.947 26.059-66.339 54.963-64.849 13.148.678 30.7 25.995 15.665 26.853-6.364.362-7.01-12.637-14.546-14.546-5.438-1.378-13.009 3.043-17.902 7.833-9.758 9.55-30.745 47.229-27.972 66.014 3.533 23.949 33.048-8.322 38.042-17.903 3.517-6.749 5.893-26.745 13.585-24.647 7.693 2.098-.671 22.734-6.247 40.979-6.264 20.487-9.557 42.098-17.408 39.612-7.852-2.484 4.938-28.932 4.475-33.566-7.38 6.809-20.976 24.047-38.37 15.515l9.035 87.078s24.013 18.973 96.35 18.973c72.337 0 97.239-18.677 97.239-18.677l11.219-100.857c-9.179 8.938-38.229 24.81-40.089 6.919" fill="#D34A47"/></symbol><symbol id="html" viewBox="0 0 256 361" preserveAspectRatio="xMidYMid"><path d="M255.555 70.766l-23.241 260.36-104.47 28.962-104.182-28.922L.445 70.766h255.11z" fill="#E44D26"/><path d="M128 337.95l84.417-23.403 19.86-222.49H128V337.95z" fill="#F16529"/><path d="M82.82 155.932H128v-31.937H47.917l.764 8.568 7.85 88.01H128v-31.937H85.739l-2.919-32.704zm7.198 80.61h-32.06l4.474 50.146 65.421 18.16.147-.04V271.58l-.14.037-35.568-9.604-2.274-25.471z" fill="#EBEBEB"/><path d="M24.18 0h16.23v16.035h14.847V0h16.231v48.558h-16.23v-16.26H40.411v16.26h-16.23V0zm68.65 16.103H78.544V0h44.814v16.103h-14.295v32.455h-16.23V16.103h-.001zM130.47 0h16.923l10.41 17.062L168.203 0h16.93v48.558h-16.164V24.49l-11.166 17.265h-.28L146.35 24.49v24.068h-15.88V0zm62.74 0h16.235v32.508h22.824v16.05h-39.06V0z" fill="#fff"/><path d="M127.89 220.573h39.327l-3.708 41.42-35.62 9.614v33.226l65.473-18.145.48-5.396 7.506-84.08.779-8.576H127.89v31.937zm0-64.719v.078h77.143l.64-7.178 1.456-16.191.763-8.568H127.89v31.86z" fill="#FFF"/></symbol><symbol id="internetexplorer" viewBox="0 0 256 252" preserveAspectRatio="xMidYMid"><path d="M256 131.593c0-20.238-5.232-39.25-14.408-55.772 39.11-88.514-41.906-75.55-46.417-74.667-17.164 3.359-33.044 8.751-47.691 15.587-2.16-.122-4.334-.189-6.523-.189-54.665 0-100.423 38.128-112.134 89.241C57.639 73.47 77.802 60.428 89.877 55.21a274.318 274.318 0 0 0-5.67 5.218c-.618.583-1.213 1.175-1.822 1.761a284.903 284.903 0 0 0-3.638 3.545c-.71.707-1.4 1.42-2.1 2.133a307.038 307.038 0 0 0-3.145 3.235c-.734.77-1.45 1.541-2.17 2.312a286.466 286.466 0 0 0-2.865 3.104c-.73.807-1.45 1.613-2.168 2.422a319.307 319.307 0 0 0-4.796 5.52 331.84 331.84 0 0 0-2.45 2.927c-.714.864-1.426 1.726-2.125 2.589a341.74 341.74 0 0 0-2.234 2.794c-.716.902-1.431 1.802-2.13 2.703-.666.857-1.312 1.711-1.963 2.566-.735.967-1.476 1.933-2.191 2.894-.512.688-1.003 1.37-1.506 2.055a356.843 356.843 0 0 0-12.449 18.128c-.01.014-.02.028-.027.043a367.82 367.82 0 0 0-2.875 4.557c-.05.081-.102.163-.152.246a361.864 361.864 0 0 0-2.719 4.458l-.094.155a369.532 369.532 0 0 0-6.537 11.338C11.69 160.689 6.646 173.807 6.428 174.586c-32.718 116.97 69.396 67.575 83.645 60.201 15.343 7.58 32.615 11.846 50.888 11.846 50.021 0 92.58-31.93 108.422-76.519h-60.446c-8.944 15.11-26.163 25.345-45.945 25.345-28.984 0-52.479-21.96-52.479-49.05h164.54c.624-4.851.947-9.796.947-14.816zM234.51 18.386c9.907 6.687 17.852 17.187 4.207 52.55-13.088-21.048-32.778-37.559-56.181-46.634 10.646-5.141 37.01-16.016 51.974-5.916zM23.98 234.552c-8.07-8.275-9.496-28.429 8.31-65.154 8.985 25.835 26.916 47.482 50.092 61.22-11.526 6.345-42.126 20.629-58.402 3.934zm66.279-119.601c.92-26.329 23.834-47.41 51.987-47.41 28.153 0 51.068 21.081 51.988 47.41H90.259z" fill="#1EBBEE"/></symbol><symbol id="sass" viewBox="0 0 256 192" preserveAspectRatio="xMidYMid"><path d="M220.281 110.514c-8.906.046-16.647 2.191-23.128 5.362-2.379-4.71-4.757-8.906-5.176-11.984-.467-3.59-1.026-5.782-.467-10.072.56-4.29 3.078-10.399 3.031-10.865-.046-.466-.56-2.658-5.689-2.704-5.129-.047-9.559.979-10.072 2.331-.513 1.352-1.492 4.43-2.145 7.6-.886 4.664-10.258 21.31-15.62 30.03-1.726-3.403-3.218-6.388-3.545-8.766-.466-3.59-1.026-5.782-.466-10.072.56-4.29 3.078-10.398 3.031-10.865-.047-.466-.56-2.658-5.689-2.704-5.13-.047-9.56.979-10.072 2.331-.513 1.353-1.073 4.523-2.145 7.601-1.073 3.078-13.523 30.87-16.787 38.05a214.726 214.726 0 0 1-4.15 8.627s-.047.14-.187.373a117.773 117.773 0 0 1-1.398 2.658v.046c-.7 1.26-1.446 2.425-1.819 2.425-.28 0-.793-3.357.093-7.927 1.865-9.652 6.295-24.667 6.249-25.18 0-.28.839-2.891-2.891-4.244-3.638-1.352-4.943.886-5.27.886-.326 0-.56.793-.56.793s4.058-16.88-7.74-16.88c-7.367 0-17.533 8.067-22.569 15.341a6269.96 6269.96 0 0 0-17.16 9.373c-2.75 1.539-5.595 3.078-8.253 4.523-.187-.186-.373-.42-.56-.606-14.269-15.248-40.661-26.02-39.542-46.49.42-7.461 2.984-27.046 50.687-50.827 39.262-19.352 70.505-13.99 75.914-2.099 7.74 16.974-16.74 48.496-57.309 53.065-15.481 1.726-23.595-4.243-25.646-6.481-2.145-2.332-2.472-2.472-3.265-2.005-1.305.7-.466 2.798 0 4.01 1.213 3.17 6.202 8.766 14.642 11.518 7.461 2.424 25.6 3.777 47.563-4.71 24.574-9.513 43.786-35.952 38.144-58.101-5.643-22.476-42.947-29.89-78.246-17.347C61.086 13.99 38.33 25.74 21.963 41.035 2.518 59.22-.56 75.028.699 81.65c4.524 23.501 36.932 38.796 49.895 50.127-.653.373-1.26.7-1.772.98-6.482 3.217-31.196 16.133-37.351 29.796-6.994 15.481 1.12 26.58 6.482 28.071 16.647 4.617 33.76-3.683 42.946-17.393 9.186-13.709 8.067-31.522 3.824-39.682-.047-.093-.093-.187-.187-.28 1.679-.979 3.404-2.005 5.083-2.984a247.933 247.933 0 0 1 9.373-5.27c-1.586 4.337-2.752 9.513-3.311 16.974-.7 8.767 2.89 20.144 7.6 24.62 2.099 1.96 4.57 2.006 6.156 2.006 5.502 0 7.974-4.57 10.725-9.979 3.357-6.621 6.388-14.315 6.388-14.315s-3.777 20.797 6.482 20.797c3.73 0 7.507-4.85 9.186-7.321v.046s.093-.14.28-.466c.373-.606.606-.98.606-.98v-.092c1.492-2.612 4.85-8.534 9.839-18.373 6.435-12.683 12.637-28.537 12.637-28.537s.56 3.87 2.471 10.305c1.12 3.777 3.45 7.927 5.316 11.937-1.492 2.099-2.425 3.264-2.425 3.264l.047.047c-1.213 1.585-2.518 3.31-3.964 4.99-5.083 6.061-11.144 13.01-11.984 15.014-.98 2.378-.746 4.104 1.12 5.503 1.352 1.026 3.776 1.165 6.248 1.026 4.57-.327 7.787-1.446 9.372-2.145 2.472-.886 5.363-2.239 8.067-4.244 4.99-3.684 8.02-8.953 7.741-15.9-.14-3.824-1.399-7.648-2.938-11.239.467-.652.886-1.305 1.353-1.958 7.88-11.518 13.989-24.155 13.989-24.155s.56 3.87 2.471 10.306c.933 3.264 2.845 6.808 4.523 10.258-7.414 6.016-11.984 13.01-13.616 17.58-2.937 8.487-.653 12.31 3.684 13.196 1.958.42 4.756-.513 6.808-1.399 2.611-.839 5.689-2.284 8.627-4.43 4.99-3.683 9.792-8.813 9.512-15.76-.14-3.171-.979-6.296-2.145-9.327 6.295-2.61 14.409-4.056 24.76-2.844 22.197 2.611 26.58 16.46 25.74 22.29-.839 5.828-5.502 8.999-7.04 9.978-1.54.98-2.052 1.306-1.912 2.005.186 1.026.932.98 2.238.793 1.819-.326 11.658-4.71 12.077-15.435.7-13.709-12.357-28.677-35.439-28.537zM49.055 168.242c-7.368 8.02-17.626 11.051-22.056 8.487-4.756-2.752-2.891-14.596 6.155-23.082 5.502-5.176 12.59-9.98 17.3-12.917 1.072-.653 2.658-1.585 4.57-2.751.326-.187.513-.28.513-.28l1.119-.7c3.31 12.124.14 22.803-7.601 31.243zm53.625-36.465c-2.565 6.249-7.927 22.243-11.191 21.357-2.798-.746-4.524-12.87-.56-24.854 2.005-6.016 6.248-13.197 8.72-15.994 4.01-4.477 8.44-5.97 9.512-4.15 1.353 2.378-4.896 19.724-6.481 23.641zm44.252 21.17c-1.073.56-2.098.933-2.565.653-.326-.187.467-.933.467-.933s5.549-5.968 7.74-8.673c1.26-1.585 2.751-3.45 4.337-5.549v.606c0 7.135-6.902 11.938-9.98 13.896zm34.133-7.787c-.793-.56-.653-2.425 2.005-8.254 1.026-2.285 3.45-6.108 7.601-9.792.466 1.492.793 2.938.746 4.29-.047 9-6.481 12.357-10.352 13.756z" fill="#CD6799"/></symbol></svg>