<svg xmlns="http://www.w3.org/2000/svg" xmlns:xlink="http://www.w3.org/1999/xlink"><symbol id="bem" viewBox="0 0 256 212" preserveAspectRatio="xMidYMid">
	<g fill="#ffffff">
		<path d="M0,32.6915521 L59.8506876,32.6915521 L59.8506876,50.2946955 L0,50.2946955 L0,32.6915521 Z M0,0 L59.8506876,0 L59.8506876,17.6031434 L0,17.6031434 L0,0 Z M107.379175,65.1316306 L0,65.1316306 L0,82.7347741 L103.355599,82.7347741 C114.671906,82.7347741 141.076621,82.9862475 150.884086,98.8290766 L150.884086,89.021611 C146.10609,73.4302554 132.023576,65.1316306 107.379175,65.1316306 L107.379175,65.1316306 Z M107.630648,97.8231827 L1.42108547e-14,97.8231827 L1.42108547e-14,115.426326 L103.355599,115.426326 C128.502947,115.426326 144.345776,116.43222 150.884086,119.952849 L150.884086,112.157171 C145.854617,99.8349705 124.730845,97.8231827 107.630648,97.8231827 L107.630648,97.8231827 Z M107.379175,180.80943 L0,180.80943 L0,163.206287 L103.355599,163.206287 C114.671906,163.206287 141.076621,162.954813 150.884086,147.111984 L150.884086,156.91945 C146.10609,172.510806 132.023576,180.80943 107.379175,180.80943 L107.379175,180.80943 Z M107.630648,148.117878 L1.42108547e-14,148.117878 L1.42108547e-14,130.514735 L103.355599,130.514735 C128.502947,130.514735 144.345776,129.508841 150.884086,125.988212 L150.884086,133.78389 C145.854617,146.10609 124.730845,148.117878 107.630648,148.117878 L107.630648,148.117878 Z M177.037328,211.237721 L256,211.237721 L256,200.424361 L179.300589,200.424361 C172.510806,200.424361 156.416503,200.172888 150.632613,190.868369 L150.632613,196.903733 C153.398821,206.208251 161.948919,211.237721 177.037328,211.237721 L177.037328,211.237721 Z M176.785855,191.371316 L255.748527,191.371316 L255.748527,180.557957 L179.300589,180.557957 C163.960707,180.557957 154.404715,180.05501 150.632613,177.791749 L150.632613,182.569745 C153.650295,190.113949 166.475442,191.371316 176.785855,191.371316 L176.785855,191.371316 Z"/>
	</g>
</symbol><symbol id="css" viewBox="0 0 256 361" preserveAspectRatio="xMidYMid">
    <g>
        <path d="M127.843868,360.087912 L23.6617143,331.166242 L0.445186813,70.7657143 L255.554813,70.7657143 L232.31367,331.125451 L127.843868,360.087912 L127.843868,360.087912 Z" fill="#264DE4"/>
        <path d="M212.416703,314.546637 L232.277802,92.0573187 L128,92.0573187 L128,337.950242 L212.416703,314.546637 L212.416703,314.546637 Z" fill="#2965F1"/>
        <path d="M53.6685714,188.636132 L56.530989,220.572835 L128,220.572835 L128,188.636132 L53.6685714,188.636132 L53.6685714,188.636132 Z" fill="#EBEBEB"/>
        <path d="M47.917011,123.994725 L50.8202198,155.932132 L128,155.932132 L128,123.994725 L47.917011,123.994725 L47.917011,123.994725 Z" fill="#EBEBEB"/>
        <path d="M128,271.580132 L127.860044,271.617407 L92.2915165,262.013187 L90.0177582,236.54189 L57.957978,236.54189 L62.4323516,286.687648 L127.853011,304.848879 L128,304.808088 L128,271.580132 L128,271.580132 Z" fill="#EBEBEB"/>
        <path d="M60.4835165,0 L99.1648352,0 L99.1648352,16.1758242 L76.6593407,16.1758242 L76.6593407,32.3516484 L99.1648352,32.3516484 L99.1648352,48.5274725 L60.4835165,48.5274725 L60.4835165,0 L60.4835165,0 Z" fill="#ffffff"/>
        <path d="M106.901099,0 L145.582418,0 L145.582418,14.0659341 L123.076923,14.0659341 L123.076923,16.8791209 L145.582418,16.8791209 L145.582418,49.2307692 L106.901099,49.2307692 L106.901099,34.4615385 L129.406593,34.4615385 L129.406593,31.6483516 L106.901099,31.6483516 L106.901099,0 L106.901099,0 Z" fill="#ffffff"/>
        <path d="M153.318681,0 L192,0 L192,14.0659341 L169.494505,14.0659341 L169.494505,16.8791209 L192,16.8791209 L192,49.2307692 L153.318681,49.2307692 L153.318681,34.4615385 L175.824176,34.4615385 L175.824176,31.6483516 L153.318681,31.6483516 L153.318681,0 L153.318681,0 Z" fill="#ffffff"/>
        <path d="M202.126769,188.636132 L207.892396,123.994725 L127.889582,123.994725 L127.889582,155.932132 L172.892132,155.932132 L169.98611,188.636132 L127.889582,188.636132 L127.889582,220.572835 L167.216527,220.572835 L163.509451,261.992791 L127.889582,271.606857 L127.889582,304.833407 L193.362286,286.687648 L193.842637,281.291956 L201.347516,197.212132 L202.126769,188.636132 L202.126769,188.636132 Z" fill="#FFFFFF"/>
    </g>
</symbol><symbol id="foundation" viewBox="0 0 256 380" preserveAspectRatio="xMidYMid">
	<g>
		<path d="M255.846266,364.169023 C255.846266,372.746026 198.585817,379.699467 127.950538,379.699467 C57.3152585,379.699467 0.0548093995,372.746026 0.0548093995,364.169023 C0.0548093995,355.590684 67.2250653,348.639248 127.950538,348.639248 C200.236783,348.639248 255.846266,355.590684 255.846266,364.169023" fill="#1A4658"/>
		<path d="M247.92965,252.109201 C243.971342,252.109201 239.707572,250.281775 236.66164,236.274632 C233.615708,222.267488 229.049149,207.954883 229.049149,207.954883 C233.921838,207.954883 236.66164,205.822663 236.66164,205.822663 C233.311582,204.299363 226.003217,199.123885 221.131864,192.728564 C216.259843,186.333911 203.773995,175.979614 203.773995,175.979614 L203.773995,155.273692 C203.773995,141.265211 212.758057,130.304 212.758057,130.304 C206.668198,130.304 203.773995,135.784272 203.773995,135.784272 L203.773995,106.246684 C203.773995,77.0132219 218.542454,63.9204595 218.542454,63.9204595 C213.974559,63.6163342 210.929963,65.7472167 210.929963,65.7472167 C213.061514,44.1275822 219.685431,37.7322611 219.685431,37.7322611 C195.324658,31.3369399 181.735269,45.6495457 181.735269,45.6495457 C178.994799,32.5561149 189.710037,24.940282 189.710037,24.940282 C177.225525,22.199812 166.899969,25.8539948 166.899969,25.8539948 C166.899969,6.67003655 174.526496,0.271373368 174.526496,0.271373368 C136.462037,0.271373368 114.849755,28.891906 114.849755,28.891906 C113.327791,16.7108512 116.679854,6.04240209 116.679854,6.04240209 C79.8345692,21.572846 70.0925326,55.9650757 70.0925326,55.9650757 C67.6568564,50.1800104 67.3527311,37.0458068 67.3527311,37.0458068 C67.3527311,37.0458068 52.1264125,62.5488877 49.3859426,80.2095457 C46.6454726,97.8722089 51.8216188,148.573577 51.8216188,148.573577 C51.8216188,148.573577 49.386611,145.52965 44.2097963,144.920731 C44.2097963,144.920731 49.6907363,151.011258 49.6907363,164.714277 C49.6907363,164.714277 47.558517,162.886851 43.9050026,163.800564 C43.9050026,163.800564 49.6900679,168.97671 50.2996554,177.807708 C50.2996554,177.807708 43.6002089,182.375603 39.9460261,186.943499 C39.9460261,186.943499 34.159624,187.247624 31.1150287,188.161337 C31.1150287,188.161337 35.987718,190.901807 36.9014308,193.338151 C36.9014308,193.338151 22.5888251,207.954883 15.2804595,219.830475 C15.2804595,219.830475 21.6757807,215.872167 26.2430078,217.090005 C26.2430078,217.090005 16.1935039,229.270392 12.8441149,249.368063 C12.8441149,249.368063 17.7161358,246.933055 19.8476867,248.150893 C19.8476867,248.150893 13.7571593,260.93953 13.4530339,274.338423 L6.75425587,278.297399 L11.9310705,281.951582 C11.9310705,281.951582 7.97209399,298.39507 7.0583812,307.834987 C7.0583812,307.834987 10.1029765,304.790392 12.5393211,303.876679 C12.5393211,303.876679 15.8893786,311.793295 20.4572742,317.883822 C25.0251697,323.97435 35.3794674,329.151164 41.4693264,329.151164 L52.9158016,328.704668 C51.4961044,334.830621 48.6954778,340.025483 42.7921044,340.297525 L42.1370653,341.34893 C42.0134099,341.339572 41.8917598,341.334225 41.7727833,341.331551 C41.655812,343.120209 38.0457441,343.442381 37.0531593,344.681608 C34.0353003,348.446747 31.7339739,353.619551 30.2013159,358.23223 C29.0783916,361.612366 29.609107,361.611697 28.8310809,365.084073 C28.5764178,366.220366 27.3973473,367.434193 27.0043238,368.585191 C30.2922193,367.480982 39.4046162,366.74306 44.2044491,366.390809 L44.2853264,370.639206 C44.2853264,370.639206 45.0767206,371.375123 46.3874674,371.908512 C46.4329191,371.899822 46.4763655,371.887123 46.5311749,371.891802 C46.9763342,371.927896 47.4061201,371.993399 47.8265483,372.097671 C55.0293055,371.453326 60.0443655,372.668491 68.3927728,371.975352 C70.0170026,371.782183 71.5403029,371.553587 72.9620052,370.744146 C73.3663916,369.536334 73.4205326,369.462141 73.6110287,367.902078 C73.6518016,367.624021 73.6518016,367.337943 73.7186423,366.99906 C73.8496501,366.977003 73.9766475,366.958287 74.1043133,366.939572 C74.153107,366.920856 74.2306423,366.904815 74.402423,366.898131 C74.4378486,366.887436 74.4679269,366.870726 74.5080313,366.867384 C74.640376,366.855352 74.7720522,366.844658 74.9043969,366.833295 C74.9953003,366.799206 75.0821932,366.789849 75.1603969,366.811238 C76.6716658,366.676219 79.0973159,366.548554 80.6079164,366.466339 C85.518705,366.458319 91.97953,367.023791 91.97953,367.023791 C92.3792376,361.519457 92.7789452,352.978548 101.686141,328.084386 L103.89389,326.71482 C103.89389,326.71482 131.251133,336.35459 156.635238,326.325138 C158.643802,331.269347 165.143394,347.88729 166.165389,358.363238 C167.038997,359.591102 166.942078,361.149159 166.971488,362.800125 C166.996219,364.197097 167.113859,365.594736 167.15129,366.987697 C168.064334,366.863373 171.360251,366.459655 175.521086,366.466339 C177.031687,366.548554 179.457337,366.676219 180.968606,366.811238 C181.047478,366.789849 181.133702,366.799206 181.224606,366.833295 C181.35695,366.844658 181.488627,366.855352 181.620971,366.867384 C181.661076,366.870726 181.691154,366.887436 181.727248,366.898131 C181.89836,366.904815 181.975896,366.920856 182.025358,366.939572 C182.152355,366.958287 182.279352,366.977003 182.41036,366.99906 C182.477201,367.337943 182.477201,367.624021 182.518642,367.902078 C182.70847,369.462141 182.762611,369.536334 183.166997,370.744146 C183.297337,370.818339 183.429013,370.882507 183.561358,370.94801 C188.106527,370.371175 192.712522,370.265567 197.286433,370.482131 C200.883802,370.652574 204.419676,371.327666 207.96023,371.97201 C207.960898,372.005431 207.963572,372.03952 207.963572,372.073608 C208.320501,372.111708 208.66941,372.137107 209.01765,372.159833 C210.917264,372.499384 212.822225,372.81554 214.739217,373.022747 C214.775979,370.624501 214.762611,368.527708 214.71248,366.686245 C218.526413,366.868721 224.046789,367.628031 226.36282,367.965577 C227.281211,368.185483 228.027154,368.32117 228.809859,368.489608 C228.916136,368.521023 229.028428,368.553107 229.125347,368.585191 C229.121337,368.576501 229.117326,368.566475 229.113316,368.557786 C229.899363,368.734245 230.746903,368.957493 231.865817,369.346507 C231.695373,367.286475 231.710747,367.329253 231.438037,364.746527 C231.228157,362.749326 229.79576,356.680856 227.116115,354.177671 C227.116115,354.177671 230.035718,355.439624 230.927373,355.942266 C228.049211,352.042778 226.649567,346.467593 217.606684,342.623582 C217.606684,342.623582 219.258319,341.844888 220.768251,341.648376 C219.190141,340.675843 217.985003,340.293514 216.387509,340.409149 C216.930256,338.867802 219.318475,334.979676 221.32236,334.480376 C221.32236,334.480376 220.092491,333.625483 218.081253,334.286538 C217.333974,334.678225 216.608752,335.098653 215.902914,335.595948 C215.636219,335.784439 215.247206,335.589264 215.168334,335.29717 C214.536021,332.959081 214.12495,330.583561 213.751979,328.198016 C231.974768,327.537629 234.530757,318.189285 234.530757,318.189285 C236.053389,319.407791 236.052721,322.147593 236.052721,322.147593 C243.969337,311.793963 243.056292,301.440334 243.056292,301.440334 C244.883718,301.74446 246.40635,302.962966 246.40635,302.962966 C247.320063,287.128397 242.448042,260.026486 242.448042,260.026486 C244.884386,261.244324 246.40635,259.72236 246.40635,259.72236 C243.66588,258.504522 243.361755,255.45859 243.361755,255.45859 C247.320731,255.763384 247.92965,252.109201 247.92965,252.109201" fill="#EDF7FA"/>
		<path d="M73.7186423,366.99906 C73.7186423,366.99906 74.4325013,359.297671 71.921295,353.740533 C71.921295,353.740533 76.6776815,354.063373 77.4770966,366.624752 C77.4770966,366.624752 74.1457546,367.01176 73.7186423,366.99906" fill="#CDE9EE"/>
		<path d="M49.8424648,341.027426 L49.8718747,340.790809 C49.8892533,340.907781 49.8865796,340.998016 49.8424648,341.027426" fill="#CDE9EE"/>
		<path d="M54.2960627,366.402172 C54.268658,366.39482 54.2532846,366.390809 54.2532846,366.390809 C54.2532846,366.390809 54.2726684,366.338005 54.3087624,366.246433 L54.2960627,366.402172" fill="#CDE9EE"/>
		<path d="M114.851091,28.891906 C113.329128,16.7108512 116.681191,6.04240209 116.681191,6.04240209 C79.8352376,21.572846 70.0925326,55.9650757 70.0925326,55.9650757 C67.6568564,50.1800104 67.3527311,37.0458068 67.3527311,37.0458068 C67.3527311,37.0458068 52.1264125,62.5488877 49.3859426,80.2095457 C46.6454726,97.8722089 51.8216188,148.573577 51.8216188,148.573577 C51.8216188,148.573577 49.386611,145.52965 44.2097963,144.920731 C44.2097963,144.920731 49.6907363,151.011258 49.6907363,164.714277 C49.6907363,164.714277 47.558517,162.886851 43.9050026,163.800564 C43.9050026,163.800564 49.6900679,168.97671 50.2996554,177.807708 C50.2996554,177.807708 43.6002089,182.375603 39.9460261,186.943499 C39.9460261,186.943499 34.159624,187.247624 31.1150287,188.161337 C31.1150287,188.161337 35.987718,190.901807 36.9014308,193.338151 C36.9014308,193.338151 22.5888251,207.954883 15.2804595,219.830475 C15.2804595,219.830475 21.6757807,215.872167 26.2430078,217.090005 C26.2430078,217.090005 16.1935039,229.270392 12.8441149,249.368063 C12.8441149,249.368063 17.7161358,246.933055 19.8476867,248.150893 C19.8476867,248.150893 13.7571593,260.93953 13.4530339,274.338423 L6.75425587,278.297399 L11.9310705,281.951582 C11.9310705,281.951582 7.97209399,298.39507 7.0583812,307.834987 C7.0583812,307.834987 10.1029765,304.790392 12.5393211,303.876679 C12.5393211,303.876679 15.8893786,311.793295 20.4572742,317.883822 C25.0251697,323.97435 35.3794674,329.151164 41.4693264,329.151164 L42.24,329.045556 C41.9004491,331.145023 41.5181201,333.23647 40.9606684,335.29717 C40.8817963,335.589264 40.4934517,335.784439 40.2260888,335.595948 C39.5209191,335.098653 38.7956971,334.678225 38.0477493,334.286538 C36.0371802,333.625483 34.8066423,334.480376 34.8066423,334.480376 C36.8105274,334.979676 39.1987467,338.867802 39.7421619,340.409149 C38.144,340.293514 36.9388616,340.675843 35.360752,341.648376 C36.8713525,341.844888 38.5223185,342.623582 38.5223185,342.623582 C29.4801044,346.467593 28.0797911,352.042778 25.2022977,355.942266 C26.0932846,355.439624 29.0128877,354.177671 29.0128877,354.177671 C26.3332428,356.680856 24.9015144,362.749326 24.6909661,364.746527 C24.4189243,367.329253 24.4336292,367.286475 24.2638538,369.346507 C26.6607624,368.513003 27.8257963,368.430789 29.7661828,367.965577 C32.764658,367.529107 41.1444804,366.380115 44.2224961,366.699614 L43.7372324,372.619697 C43.7372324,372.619697 43.7987258,372.619697 43.8882924,372.617692 C45.4684073,372.164512 46.7557598,372.225337 48.1654308,372.073608 C48.1861514,370.442026 48.2717076,368.811781 48.405389,367.186214 C48.3111436,364.408313 48.6560418,361.878392 49.2235196,359.058381 C49.242235,358.963467 49.2656292,358.864543 49.2850131,358.769629 C50.4032585,354.919603 52.3476554,352.727896 53.6109452,351.379718 C54.0300366,350.931885 54.3943185,350.401838 54.7057963,349.858423 C55.4597598,348.855144 56.2431332,347.548407 56.8480418,345.898778 C58.0999687,342.482548 57.5632376,334.977671 55.0473525,327.653264 C57.7002611,331.469201 60.1165535,334.817922 61.2622037,335.963572 L61.1860052,326.638621 C61.1860052,326.638621 66.0580261,331.5073 70.4187154,335.185546 C72.5181828,337.018987 75.1075927,339.403196 76.9463812,340.353003 C77.0793943,340.436554 77.1990392,339.550914 77.3454204,340.887728 L77.3440836,340.887728 C77.362799,340.887728 77.380846,340.623039 77.3995614,340.633734 C79.8693264,342.019342 82.4099426,343.11954 84.7881358,344.658883 C85.042799,344.823311 85.3028094,344.902851 85.5527937,345.0753 C86.6536606,345.833274 88.5913734,346.675467 90.3325744,347.593191 L91.97953,367.041838 C93.4640627,346.601274 105.111728,327.028303 105.111728,327.028303 L104.685285,326.897295 C101.081232,325.78306 74.7105587,316.659969 59.1306527,284.08447 C58.1046475,281.938883 64.9163864,286.519478 64.9163864,286.519478 C58.5210653,270.989034 56.0847206,246.018674 56.0847206,246.018674 C58.2162715,247.846099 60.3484909,248.150225 60.3484909,248.150225 C55.7805953,235.360251 53.9538381,219.525681 53.9538381,205.213076 C52.736,128.171781 81.2081462,110.510454 81.2081462,110.510454 C76.3361253,108.683029 71.1593107,108.835426 71.1593107,108.835426 C76.7933159,95.2848042 95.5194151,76.4049713 95.5194151,76.4049713 C90.4949974,76.709765 70.8538486,82.0376397 70.8538486,82.0376397 C87.1456084,39.5583499 103.589765,28.2916762 103.589765,28.2916762 C102.371927,38.4922402 106.330903,49.3030601 106.330903,49.3030601 C141.654225,5.6045953 170.034799,7.6432376 170.034799,7.6432376 C172.139614,3.25982245 174.530507,0.271373368 174.530507,0.271373368 C136.466047,0.271373368 114.851091,28.891906 114.851091,28.891906" fill="#CDE9EE"/>
		<path d="M214.698444,366.758433 C214.698444,366.758433 214.354883,355.719018 211.843676,350.16188 C211.843676,350.16188 218.390726,354.197055 218.353295,366.947593 C218.353295,366.947593 215.125556,366.771133 214.698444,366.758433" fill="#CDE9EE"/>
		<path d="M44.3561775,309.98258 C48.6687415,267.744585 49.8424648,185.115405 49.8424648,185.115405 C40.4787467,203.614245 32.9424543,237.187008 32.9424543,237.187008 L34.7692115,244.495373 L30.6585065,242.668616 C24.0513003,265.598997 28.5216084,296.294266 30.0021305,304.941452 C34.2050757,308.268783 39.2114465,309.391039 44.3561775,309.98258" fill="#ABD8D7"/>
		<path d="M35.5231749,309.069535 C36.8619948,315.829807 38.2509452,322.340094 39.7936292,329.054914 C40.9359373,329.226695 42.2206162,329.14047 42.2206162,329.14047 C43.2686789,325.056501 43.4424648,318.736042 44.2572533,310.961128 C41.2547676,310.609546 38.3090966,310.076157 35.5231749,309.069535" fill="#ABD8D7"/>
		<path d="M178.633191,345.466987 C178.387885,345.537838 178.201399,345.428219 178.10047,345.260449 C177.626569,345.353358 177.264292,345.438914 177.020324,345.501744 C177.020324,345.500407 177.020992,345.500407 177.020992,345.500407 C183.303352,340.928501 183.880856,336.093911 183.880856,336.093911 C179.713337,337.972804 175.289149,338.674632 173.136877,338.921943 C187.658026,326.335164 190.070977,302.962966 190.070977,302.962966 C184.123488,310.263979 175.682841,316.434047 169.159854,320.575499 L169.17389,320.547426 C169.17389,320.547426 164.803175,322.991123 160.764658,324.894078 C160.58753,324.867342 160.409734,324.914799 160.276721,325.121337 C158.201984,326.082507 156.267614,326.866548 155.127979,327.057044 C155.127979,327.057044 158.491405,333.267217 159.895728,336.615937 L159.620345,336.839185 C159.620345,336.839185 164.485681,348.339133 166.256961,359.479478 C166.444115,361.361713 166.588491,363.011342 166.68942,364.27129 C166.774308,365.900867 166.889943,367.023791 166.889943,367.023791 C173.323363,366.071979 182.41036,366.99906 182.41036,366.99906 C182.366914,368.047123 182.942413,370.563008 183.048021,371.018862 C186.103311,370.607123 189.185337,370.427321 192.2687,370.400585 C192.227258,359.603133 191.752689,341.662413 178.633191,345.466987" fill="#CDE9EE"/>
		<path d="M44.0186319,313.240397 C33.9303603,311.533953 24.7751854,299.93976 24.7751854,299.93976 C32.1310078,307.761462 41.288188,308.808856 41.288188,308.808856 C42.4966684,299.876261 35.1134413,279.431018 35.1134413,279.431018 C40.5816815,286.240752 43.5728042,294.117264 45.2083969,300.564052 L44.0186319,313.240397" fill="#83BAC0"/>
		<path d="M66.9142559,297.423875 C66.9142559,297.423875 74.8509243,311.412303 81.8163969,317.464731 C89.3339739,323.995739 96.3188303,333.223102 99.2878956,338.818339 C99.2878956,338.818339 103.056376,330.064877 105.111728,327.018945 C105.111728,327.018945 82.8444073,320.490611 66.9142559,297.423875" fill="#ABD8D7"/>
		<path d="M170.503352,324.706924 C171.606893,323.154214 172.870851,321.711123 174.075321,320.237285 C176.050465,317.818987 178.307008,315.47154 179.965326,312.840021 C177.103206,314.981598 173.91624,316.837097 170.658423,318.797535 C161.202465,325.204888 154.614642,327.018945 154.614642,327.018945 C156.669995,330.064877 160.438475,338.818339 160.438475,338.818339 C162.235154,335.432188 165.508345,330.715238 169.475342,326.069807 C169.808209,325.607937 170.178507,325.164783 170.503352,324.706924" fill="#ABD8D7"/>
		<path d="M63.9037493,89.109389 C63.0381619,89.1722193 60.2669452,89.2424021 60.2669452,89.2424021 C35.1602298,90.9949661 16.7055039,71.5389661 16.7055039,71.5389661 C16.7055039,71.5389661 15.0558747,86.7258486 25.9622768,100.033838 C36.8720209,113.341828 58.9789243,115.619091 58.9789243,115.619091 C59.6974621,118.731196 58.1414099,125.671269 58.1414099,125.671269 C58.1414099,125.671269 64.605577,118.520648 66.2471854,104.972031 C67.3995196,95.4779739 64.439812,89.0706214 63.9037493,89.109389" fill="#545352"/>
		<path d="M63.9037493,89.109389 C63.0709138,89.156846 60.2669452,89.2424021 60.2669452,89.2424021 C35.1602298,90.9949661 16.7055039,71.5389661 16.7055039,71.5389661 C16.7055039,71.5389661 28.1753734,104.732742 66.4811279,102.109911 C66.4811279,102.109911 67.5398851,95.9699217 63.9037493,89.109389" fill="#6E7979"/>
		<path d="M189.256856,89.109389 C190.121775,89.1722193 192.892992,89.2424021 192.892992,89.2424021 C218.000376,90.9949661 236.454433,71.5389661 236.454433,71.5389661 C236.454433,71.5389661 238.104063,86.7258486 227.198329,100.033838 C216.287916,113.341828 194.181013,115.619091 194.181013,115.619091 C193.463144,118.731196 195.019196,125.671269 195.019196,125.671269 C195.019196,125.671269 188.55436,118.520648 186.912752,104.972031 C185.760418,95.4779739 188.720794,89.0706214 189.256856,89.109389" fill="#545352"/>
		<path d="M189.256856,89.109389 C190.089023,89.156846 192.892992,89.2424021 192.892992,89.2424021 C218.000376,90.9949661 236.454433,71.5389661 236.454433,71.5389661 C236.454433,71.5389661 224.984564,104.732742 186.679478,102.109911 C186.679478,102.109911 185.620052,95.9699217 189.256856,89.109389" fill="#6E7979"/>
		<path d="M50.7989556,201.558893 C50.7989556,201.558893 32.7519582,266.42047 50.7989556,307.986715 L50.7989556,201.558893" fill="#CDE9EE"/>
		<path d="M230.495582,304.158747 C221.588386,310.955781 212.320919,311.386235 212.320919,311.386235 C211.907843,302.506444 221.615123,283.092554 221.615123,283.092554 C219.406037,284.396616 217.630747,285.974057 216.170277,287.704564 L216.106778,281.189598 L223.11035,275.404533 L217.477681,270.836637 L224.632982,242.059697 L217.781807,246.627593 C217.781807,246.627593 215.650924,205.671603 217.172888,188.009608 C217.172888,188.009608 208.494287,179.329671 204.231185,175.828554 C204.231185,175.828554 205.036616,188.438726 205.955676,208.587196 C209.845138,224.749953 215.885535,258.198392 208.3713,287.615666 C208.458193,293.578527 208.52236,299.634298 208.557117,305.747551 C208.557117,305.747551 212.301535,318.758099 213.518705,327.893222 C213.518705,327.893222 214.736543,328.236115 216.563969,327.93199 L216.426277,313.941556 C225.834778,311.100157 230.495582,304.158747 230.495582,304.158747" fill="#CDE9EE"/>
		<path d="M146.067718,178.565013 C146.067718,185.483029 150.497922,191.090966 155.964825,191.090966 C161.43106,191.090966 165.862601,185.483029 165.862601,178.565013 C165.862601,171.645661 161.43106,166.037723 155.964825,166.037723 C150.497922,166.037723 146.067718,171.645661 146.067718,178.565013" fill="#CDE9EE"/>
		<path d="M146.37318,175.218966 C146.37318,182.030037 150.735206,187.551749 156.11789,187.551749 C161.499906,187.551749 165.862601,182.030037 165.862601,175.218966 C165.862601,168.407227 161.499906,162.886183 156.11789,162.886183 C150.735206,162.886183 146.37318,168.407227 146.37318,175.218966" fill="#FFFFFF"/>
		<path d="M153.530486,168.860407 C153.45295,169.163196 153.399478,169.478684 153.399478,169.813556 C153.399478,171.550747 154.53176,172.957076 155.927394,172.957076 C157.167958,172.957076 158.1953,171.844846 158.409191,170.379029 C159.205264,171.423081 159.695875,172.828742 159.695875,174.381452 C159.695875,177.598496 157.599749,180.205285 155.01435,180.205285 C152.42895,180.205285 150.332157,177.598496 150.332157,174.381452 C150.332157,171.810089 151.672313,169.633086 153.530486,168.860407" fill="#474746"/>
		<path d="M98.563342,178.565013 C98.563342,185.483029 102.994214,191.090966 108.461117,191.090966 C113.926684,191.090966 118.358225,185.483029 118.358225,178.565013 C118.358225,171.645661 113.926684,166.037723 108.461117,166.037723 C102.994214,166.037723 98.563342,171.645661 98.563342,178.565013" fill="#CDE9EE"/>
		<path d="M98.8688042,175.218966 C98.8688042,182.030037 103.231499,187.551749 108.613514,187.551749 C113.99553,187.551749 118.358225,182.030037 118.358225,175.218966 C118.358225,168.407227 113.99553,162.886183 108.613514,162.886183 C103.231499,162.886183 98.8688042,168.407227 98.8688042,175.218966" fill="#FFFFFF"/>
		<path d="M107.853535,168.860407 C107.776,169.163196 107.722527,169.478684 107.722527,169.813556 C107.722527,171.550747 108.854141,172.957076 110.250444,172.957076 C111.490339,172.957076 112.51835,171.844846 112.73224,170.379029 C113.528313,171.423081 114.018924,172.828742 114.018924,174.381452 C114.018924,177.598496 111.922131,180.205285 109.336731,180.205285 C106.751332,180.205285 104.655206,177.598496 104.655206,174.381452 C104.655206,171.810089 105.995363,169.633086 107.853535,168.860407" fill="#474746"/>
		<path d="M181.727916,188.393274 C181.106966,190.262141 178.998141,190.758768 172.989828,191.92046 L172.580762,191.999332 C166.694099,193.129608 156.169358,192.98189 150.405013,192.139697 C150.156366,192.104272 149.916407,192.067509 149.687812,192.02941 C144.345232,191.125723 143.736982,190.433922 142.018507,187.66471 C140.243885,184.79858 139.153044,176.383332 138.951854,174.723676 L138.941828,174.640125 C138.728606,172.886225 138.622997,172.007937 140.876198,170.999311 C143.906757,169.640439 157.357786,167.742162 162.869473,167.494183 C167.220804,167.30235 176.444825,167.907927 180.662475,168.524198 C181.32353,168.621786 181.813473,168.710684 182.116261,168.790893 C182.601525,168.919896 184.388178,169.788825 184.297274,171.688439 C184.178966,174.192292 182.567436,185.866695 181.727916,188.393274 L181.727916,188.393274 Z M123.063144,174.640125 L123.052449,174.723676 C122.851927,176.383332 121.761086,184.79858 119.986465,187.66471 C118.26799,190.433922 117.659739,191.125723 112.316491,192.02941 C112.088564,192.067509 111.848606,192.104272 111.59929,192.139697 C105.835614,192.98189 95.3108721,193.129608 89.4235405,191.999332 L89.0151436,191.92046 C83.0068303,190.758768 80.8980052,190.262141 80.2770548,188.393274 C79.4375352,185.866695 77.8260052,174.192292 77.7076971,171.688439 C77.6161253,169.788825 79.4034465,168.919896 79.8887102,168.790893 C80.1908303,168.710684 80.6807728,168.621786 81.3418277,168.524198 C85.5601462,167.907927 94.7834987,167.30235 99.1354987,167.494183 C104.647185,167.742162 118.097546,169.640439 121.128104,170.999311 C123.381974,172.007937 123.276366,172.886225 123.063144,174.640125 L123.063144,174.640125 Z M189.443342,163.523843 C185.029849,162.87883 177.327123,162.147593 168.081044,162.619488 C156.049044,163.238433 145.73953,164.908783 139.580825,165.906047 C137.742705,166.204157 136.298277,166.439436 135.196073,166.585149 L133.993608,166.74824 C132.642757,166.934057 131.757117,167.051697 131.002486,167.089128 C130.247854,167.051697 129.361546,166.934057 128.011363,166.74824 L126.80823,166.585149 C125.706695,166.439436 124.262266,166.204157 122.423478,165.906047 C116.265441,164.908783 105.955927,163.238433 93.9239269,162.619488 C84.6778486,162.147593 76.9751227,162.87883 72.5616292,163.523843 C72.5616292,163.523843 67.8520313,164.123405 63.8242089,165.827175 L64.5922089,170.946507 C64.5922089,170.946507 68.8479582,169.933201 73.0047833,169.378423 C73.7774621,176.597222 75.2807102,185.873379 75.2807102,185.873379 L75.3047728,186.160794 C75.4190705,186.628679 75.5253473,187.082527 75.6403133,187.577817 C76.4965431,191.225316 77.3467572,193.369567 80.7676658,194.655582 C84.1270809,195.923551 92.0764491,197.098611 100.093326,197.511687 C103.074423,197.666089 106.457901,197.482277 109.880146,196.984313 C114.955363,196.24305 119.545984,194.876825 121.299885,193.580115 C123.851864,191.693869 125.216752,186.947509 126.120439,183.807332 L126.391144,182.881587 C126.710642,181.810799 126.988031,180.686538 127.256063,179.595697 C127.641734,178.030287 128.039436,176.412073 128.379655,175.853285 C128.441149,175.755697 128.727227,175.418151 129.842799,175.254392 C130.187697,175.20493 130.576042,175.178193 131.002486,175.172846 C131.42893,175.178193 131.816606,175.20493 132.162172,175.254392 C133.277076,175.418151 133.563822,175.755697 133.625316,175.853285 C133.964867,176.412073 134.363238,178.030287 134.74824,179.595697 C135.01694,180.686538 135.294329,181.810799 135.613828,182.881587 L135.883864,183.807332 C136.787551,186.947509 138.153107,191.693869 140.705086,193.580115 C142.458987,194.876825 147.04894,196.24305 152.124157,196.984313 C155.546402,197.482277 158.930548,197.666089 161.910977,197.511687 C169.928522,197.098611 177.877222,195.923551 181.237305,194.655582 C184.657546,193.369567 185.50776,191.225316 186.364658,187.577817 C186.479624,187.082527 186.585901,186.628679 186.69953,186.160794 L186.723593,185.873379 C186.723593,185.873379 188.226841,176.597222 188.99952,169.378423 C193.157013,169.933201 197.412762,170.946507 197.412762,170.946507 L198.180762,165.827175 C194.15294,164.123405 189.443342,163.523843 189.443342,163.523843 L189.443342,163.523843 Z" fill="#545352"/>
		<path d="M111.515739,150.559415 C111.515739,150.559415 100.507739,145.309744 94.2073316,155.057796 C94.2073316,155.057796 93.5569713,145.363885 102.446789,144.281065 C111.337274,143.19624 111.515739,150.559415 111.515739,150.559415" fill="#A0D1DE"/>
		<path d="M107.386987,136.315655 C107.386987,136.315655 97.1824125,131.499781 92.5329713,140.755217 C92.5329713,140.755217 91.0143499,132.668825 98.2966475,130.717076 C105.579614,128.764658 107.386987,136.315655 107.386987,136.315655" fill="#A0D1DE"/>
		<path d="M150.94776,156.502893 C150.94776,156.502893 159.496689,152.425608 164.390099,159.997326 C164.390099,159.997326 164.895415,152.469055 157.991436,151.626862 C151.08612,150.784668 150.94776,156.502893 150.94776,156.502893" fill="#A0D1DE"/>
		<path d="M157.026924,143.019112 C157.026924,143.019112 165.677452,141.618799 167.158642,149.525389 C167.158642,149.525389 170.03012,143.817191 165.01506,140.795321 C159.999332,137.772115 157.026924,143.019112 157.026924,143.019112" fill="#A0D1DE"/>
		<path d="M110.750413,227.354736 C110.750413,227.354736 116.790141,223.295499 120.355426,222.73671 C120.355426,222.73671 121.133452,230.39599 124.67601,234.170486 C124.67601,234.170486 132.321922,227.278538 139.882945,226.788595 C139.882945,226.788595 141.834695,230.988867 145.003614,232.546256 L144.985567,232.59505 C146.129211,233.308909 147.530193,234.030789 148.88706,234.33224 C148.88706,234.33224 153.22636,231.706068 154.482298,226.909577 C154.482298,226.909577 154.900052,237.035279 148.544167,242.554319 C148.544167,242.554319 143.697546,240.188825 140.205786,236.402966 C139.157055,235.38164 138.066883,234.19388 137.537504,233.228031 C137.537504,233.228031 126.324303,241.160689 125.914569,245.68447 C125.914569,245.68447 117.820157,237.792585 115.060303,231.712084 C115.060303,231.712084 109.658235,233.417191 108.159666,234.516052 C108.159666,234.516052 103.817692,227.414893 102.936063,221.006872 C102.936063,221.006872 108.157661,225.993859 110.750413,227.354736" fill="#B2DCE5"/>
		<path d="M131.132825,207.453577 C130.684992,207.357995 142.506444,208.271708 154.114005,207.8593 C154.114005,207.8593 154.734287,205.644867 155.624606,204.428366 C155.624606,204.428366 155.430768,208.155405 156.473483,208.918057 C156.473483,208.918057 150.665023,211.204679 144.807102,211.187969 C144.807102,211.187969 151.190392,210.122527 153.3313,209.020992 C153.3313,209.020992 141.682966,209.669347 131.132825,207.453577" fill="#545352"/>
	</g>
</symbol><symbol id="git" viewBox="0 0 256 256" preserveAspectRatio="xMidYMid">
    <g>
        <path d="M251.172245,116.593517 L139.398753,4.82845302 C132.966433,-1.60948434 122.525852,-1.60948434 116.085106,4.82845302 L92.8753863,28.0381721 L122.317995,57.4807809 C129.16041,55.1690784 137.005593,56.7195763 142.460425,62.1744081 C147.940536,67.6629464 149.479799,75.5755422 147.111919,82.4404282 L175.487156,110.815665 C182.352042,108.450594 190.273064,109.98143 195.755985,115.472777 C203.418591,123.132574 203.418591,135.547794 195.755985,143.213209 C188.09057,150.878624 175.67535,150.878624 168.007126,143.213209 C162.243319,137.443783 160.81922,128.977839 163.737639,121.877008 L137.275245,95.4146135 L137.272436,165.052198 C139.140337,165.979126 140.904309,167.212221 142.460425,168.762719 C150.123031,176.422516 150.123031,188.837736 142.460425,196.508768 C134.79501,204.171375 122.374173,204.171375 114.719993,196.508768 C107.057387,188.837736 107.057387,176.422516 114.719993,168.762719 C116.613174,166.872347 118.804095,165.442631 121.141077,164.481996 L121.141077,94.1955625 C118.804095,93.2405457 116.615983,91.8192558 114.719993,89.9148396 C108.914052,84.1173254 107.518042,75.5980132 110.492639,68.4690928 L81.4713611,39.4421974 L4.83125614,116.076685 C-1.60949009,122.52024 -1.60949009,132.960821 4.83125614,139.398759 L116.604747,251.166631 C123.039876,257.604569 133.477648,257.604569 139.921203,251.166631 L251.172245,139.9184 C257.61018,133.477654 257.61018,123.031455 251.172245,116.593517" fill="#DE4C36"/>
    </g>
</symbol><symbol id="gulp" viewBox="0 0 256 566" preserveAspectRatio="xMidYMid">
    <g>
        <path d="M197.28,548.749 L202.707,458.319 L217.692,432.739 C217.692,432.739 183.586,446.691 126.487,446.691 C69.387,446.691 35.798,432.997 35.798,432.997 L52.592,460.901 L58.533,548.749 C58.533,558.167 89.592,565.801 127.907,565.801 C166.22,565.801 197.28,558.167 197.28,548.749" fill="#D34A47"/>
        <path d="M180.161,126.454 L191.552,81.429 L254.633,15.053 L238.007,0.892 L171.223,71.599 L157.997,125.392 C148.414,125.068 138.413,124.895 128.124,124.895 C57.788,124.895 0.769,132.911 0.769,142.797 C0.769,152.684 57.788,160.699 128.124,160.699 C198.459,160.699 255.477,152.684 255.477,142.797 C255.477,135.517 224.553,129.251 180.161,126.454" fill="#D34A47"/>
        <path d="M173.535,151.669 C173.535,151.669 171.068,152.222 163.811,152.253 C156.552,152.283 151.398,152.206 149.345,150.336 C148.793,149.834 148.491,148.837 148.494,148.162 C148.5,146.877 149.412,146.12 150.574,145.646 L151.673,147.37 C151.195,147.535 150.922,147.73 150.921,147.938 C150.917,148.914 158.343,149.582 164.023,149.51 C169.704,149.44 176.568,148.972 176.574,148.01 C176.574,147.719 176.055,147.445 175.152,147.229 L176.246,145.517 C177.718,145.974 179.003,146.857 179,148.385 C178.986,150.983 175.68,151.378 173.535,151.669" fill="#FFFFFF"/>
        <path d="M254.509,15.184 C256.095,13.352 253.688,8.666 249.133,4.719 C244.576,0.774 239.596,-0.94 238.007,0.892 C236.42,2.724 238.828,7.41 243.385,11.355 C247.94,15.301 252.922,17.017 254.509,15.184" fill="#D34A47"/>
        <path d="M194.246,327.865 C192.751,313.481 225.708,292.649 217.25,291.982 C199.042,293.023 189.98,313.32 180.819,334.578 C177.462,342.369 165.975,375.591 158.441,371.501 C150.909,367.413 168.206,340.094 173.054,323.87 C167.46,327.972 146.945,343.911 141.658,328.984 C133.158,336.203 114.995,340.114 117.044,321.151 C112.522,329.161 102.373,340.344 90.191,335.697 C74.193,329.596 99.461,278.635 105.744,281.206 C112.028,283.776 104.476,295.385 102.498,299.893 C98.148,309.814 93.123,322.286 96.48,324.839 C102.231,329.213 117.881,308.292 118.229,307.832 C121.156,303.965 129.495,278.666 136.216,281.571 C142.937,284.476 119.452,317.879 128.233,324.508 C130.004,325.846 137.25,323.683 141.658,318.914 C144.51,315.829 143.529,308.996 153.036,286.324 C162.543,263.653 171.016,235.419 177.536,237.57 C184.056,239.72 178.682,254.211 176.343,259.613 C165.367,284.967 146.387,326.854 155.338,323.683 C164.289,320.513 168.95,320.327 177.715,310.07 C186.48,299.813 186.076,282.918 191.918,283.277 C197.762,283.637 196.781,289.054 195.364,293.179 C201.114,286.599 222.62,272.741 227.812,286.466 C233.962,302.715 197.043,326.186 206.248,324.989 C215.223,323.822 229.763,314.613 235.971,306.24 L253.059,152.614 C253.059,152.614 235.864,166.844 126.47,166.844 C17.075,166.844 1.659,152.91 1.659,152.91 L16.207,293.134 C23.929,271.187 42.266,226.795 71.17,228.285 C84.318,228.963 101.87,254.28 86.835,255.138 C80.471,255.5 79.825,242.501 72.289,240.592 C66.851,239.214 59.28,243.635 54.387,248.425 C44.629,257.975 23.642,295.654 26.415,314.439 C29.948,338.388 59.463,306.117 64.457,296.536 C67.974,289.787 70.35,269.791 78.042,271.889 C85.735,273.987 77.371,294.623 71.795,312.868 C65.531,333.355 62.238,354.966 54.387,352.48 C46.535,349.996 59.325,323.548 58.862,318.914 C51.482,325.723 37.886,342.961 20.492,334.429 L29.527,421.507 C29.527,421.507 53.54,440.48 125.877,440.48 C198.214,440.48 223.116,421.803 223.116,421.803 L234.335,320.946 C225.156,329.884 196.106,345.756 194.246,327.865" fill="#D34A47"/>
    </g>
</symbol><symbol id="html" viewBox="0 0 256 361" preserveAspectRatio="xMidYMid">
    <g>
        <path d="M255.554813,70.7657143 L232.31367,331.125451 L127.843868,360.087912 L23.6617143,331.166242 L0.445186813,70.7657143 L255.554813,70.7657143 L255.554813,70.7657143 Z" fill="#E44D26"/>
        <path d="M128,337.950242 L212.416703,314.546637 L232.277802,92.0573187 L128,92.0573187 L128,337.950242 L128,337.950242 Z" fill="#F16529"/>
        <path d="M82.8202198,155.932132 L128,155.932132 L128,123.994725 L47.917011,123.994725 L48.6814945,132.562989 L56.530989,220.572835 L128,220.572835 L128,188.636132 L85.7389011,188.636132 L82.8202198,155.932132 L82.8202198,155.932132 Z" fill="#EBEBEB"/>
        <path d="M90.0177582,236.54189 L57.957978,236.54189 L62.4323516,286.687648 L127.853011,304.848879 L128,304.808088 L128,271.580132 L127.860044,271.617407 L92.2915165,262.013187 L90.0177582,236.54189 L90.0177582,236.54189 Z" fill="#EBEBEB"/>
        <path d="M24.1807473,0 L40.4107253,0 L40.4107253,16.0351648 L55.2573187,16.0351648 L55.2573187,0 L71.488,0 L71.488,48.5584176 L55.258022,48.5584176 L55.258022,32.2981978 L40.4114286,32.2981978 L40.4114286,48.5584176 L24.1814505,48.5584176 L24.1814505,0 L24.1807473,0 L24.1807473,0 Z" fill="#ffffff"/>
        <path d="M92.8309451,16.1026813 L78.5427692,16.1026813 L78.5427692,0 L123.356835,0 L123.356835,16.1026813 L109.06233,16.1026813 L109.06233,48.5584176 L92.8316484,48.5584176 L92.8316484,16.1026813 L92.8309451,16.1026813 L92.8309451,16.1026813 Z" fill="#ffffff"/>
        <path d="M130.469275,0 L147.392703,0 L157.802901,17.061978 L168.202549,0 L185.132308,0 L185.132308,48.5584176 L168.969143,48.5584176 L168.969143,24.4901978 L157.802901,41.7554286 L157.523692,41.7554286 L146.349714,24.4901978 L146.349714,48.5584176 L130.469275,48.5584176 L130.469275,0 L130.469275,0 Z" fill="#ffffff"/>
        <path d="M193.20967,0 L209.444571,0 L209.444571,32.5077802 L232.268659,32.5077802 L232.268659,48.5584176 L193.20967,48.5584176 L193.20967,0 L193.20967,0 Z" fill="#ffffff"/>
        <path d="M127.889582,220.572835 L167.216527,220.572835 L163.509451,261.992791 L127.889582,271.606857 L127.889582,304.833407 L193.362286,286.687648 L193.842637,281.291956 L201.347516,197.212132 L202.126769,188.636132 L127.889582,188.636132 L127.889582,220.572835 L127.889582,220.572835 Z" fill="#FFFFFF"/>
        <path d="M127.889582,155.854066 L127.889582,155.932132 L205.032791,155.932132 L205.673495,148.753582 L207.128615,132.562989 L207.892396,123.994725 L127.889582,123.994725 L127.889582,155.854066 L127.889582,155.854066 Z" fill="#FFFFFF"/>
    </g>
</symbol><symbol id="internetexplorer" viewBox="0 0 256 252" preserveAspectRatio="xMidYMid">
    <g>
        <path d="M256,131.592659 C256,111.354947 250.767631,92.3421368 241.5922,75.8208743 C280.701983,-12.6928751 199.685538,0.27175991 195.174751,1.15435696 C178.010624,4.51299652 162.131033,9.90518739 147.483501,16.7405437 C145.323523,16.6188884 143.150426,16.5520973 140.960631,16.5520973 C86.2956713,16.5520973 40.5377853,54.6802897 28.8266767,105.793393 C57.6386994,73.4700651 77.8024638,60.4279047 89.8773456,55.2086552 C87.9499445,56.9309121 86.0630951,58.6722522 84.2072559,60.426712 C83.589438,61.0099417 82.9942813,61.6015203 82.3848123,62.188328 C81.1611034,63.3655217 79.9397799,64.543908 78.7470812,65.7330286 C78.0374255,66.4402989 77.3468529,67.1535328 76.6479315,67.8655739 C75.5900077,68.9425808 74.5344694,70.0183951 73.5015923,71.1013655 C72.7680826,71.8706562 72.0524634,72.6423322 71.3320733,73.4128156 C70.3671801,74.4456927 69.4082503,75.4797625 68.467211,76.5174103 C67.7360867,77.3236747 67.0168894,78.129939 66.2988848,78.9385887 C65.4067461,79.942841 64.5229564,80.9470934 63.6510936,81.9537311 C62.9283182,82.7886202 62.2115063,83.6235093 61.5030433,84.4595911 C60.6765031,85.4352186 59.8606971,86.4108461 59.0532401,87.3864737 C58.3388136,88.2499876 57.6267725,89.1123087 56.927851,89.9746299 C56.17168,90.9073203 55.4322068,91.838818 54.6939263,92.769123 C53.9783071,93.6708032 53.2626879,94.5712907 52.5637664,95.4717782 C51.8982406,96.3293286 51.2517979,97.1833009 50.6005844,98.0384659 C49.865882,99.0045518 49.1252161,99.9706378 48.4095968,100.931953 C47.8979291,101.62014 47.4065372,102.301171 46.9044111,102.986973 C42.3590363,109.189006 38.2060594,115.27177 34.4550219,121.114801 C34.4454803,121.129113 34.4359387,121.143425 34.4275898,121.157738 C33.4400353,122.696319 32.487069,124.212239 31.553186,125.715039 C31.5030926,125.796143 31.4506139,125.878439 31.4005205,125.960735 C30.4654447,127.469499 29.5625718,128.952024 28.6823602,130.419043 C28.65135,130.470329 28.6191471,130.522808 28.588137,130.574094 C26.2218227,134.523119 24.0272571,138.330214 22.0509553,141.911888 C11.6899816,160.688544 6.6460588,173.807037 6.42779493,174.585869 C-26.2903161,291.556217 75.8237767,242.1606 90.0729482,234.787336 C105.415824,242.366937 122.688487,246.63322 140.960631,246.63322 C190.982415,246.63322 233.541483,214.703483 249.382908,170.114442 L188.936937,170.114442 C179.992889,185.224742 162.773898,195.459289 142.991797,195.459289 C114.008026,195.459289 90.513054,173.499321 90.513054,146.409555 L255.052997,146.409555 C255.676779,141.557656 256,136.612728 256,131.592659 L256,131.592659 Z M234.509955,18.3864679 C244.41651,25.0727369 252.362269,35.5732563 238.716603,70.9355804 C225.62912,49.8880262 205.938857,33.377498 182.535723,24.3022535 C193.181752,19.1605294 219.546357,8.28550254 234.509955,18.3864679 L234.509955,18.3864679 Z M23.9795491,234.552375 C15.9109424,226.277431 14.4844747,206.123208 32.2890811,169.39763 C41.2748731,195.232676 59.2059055,216.880158 82.3824269,230.618854 C70.8561865,236.962819 40.2563084,251.246579 23.9795491,234.552375 L23.9795491,234.552375 Z M90.2590092,114.950934 C91.1785799,88.6221096 114.092707,67.5411599 142.246361,67.5411599 C170.398821,67.5411599 193.314141,88.6221096 194.233712,114.950934 L90.2590092,114.950934 L90.2590092,114.950934 Z" fill="#1EBBEE"/>
    </g>
</symbol><symbol id="sass" viewBox="0 0 256 192" preserveAspectRatio="xMidYMid">
    <g fill="#CD6799">
        <path d="M220.281239,110.513661 C211.374863,110.560291 203.634244,112.705282 197.152641,115.876138 C194.774499,111.166485 192.396357,106.969763 191.976685,103.892168 C191.510383,100.301639 190.95082,98.1100182 191.510383,93.8200364 C192.069945,89.5300546 194.587978,83.4214936 194.541348,82.9551913 C194.494718,82.4888889 193.981785,80.2972678 188.852459,80.2506375 C183.723133,80.2040073 179.29326,81.2298725 178.780328,82.5821494 C178.267395,83.9344262 177.28816,87.0120219 176.635337,90.182878 C175.749362,94.8459016 166.376685,111.492896 161.014208,120.21275 C159.288889,116.808743 157.796721,113.824408 157.47031,111.446266 C157.004007,107.855738 156.444444,105.664117 157.004007,101.374135 C157.56357,97.084153 160.081603,90.975592 160.034973,90.5092896 C159.988342,90.0429872 159.47541,87.8513661 154.346084,87.8047359 C149.216758,87.7581056 144.786885,88.7839709 144.273953,90.1362477 C143.76102,91.4885246 143.201457,94.6593807 142.128962,97.7369763 C141.056466,100.814572 128.606193,128.606193 125.342077,135.78725 C123.663388,139.471038 122.217851,142.408743 121.191985,144.413843 L121.191985,144.413843 C121.191985,144.413843 121.145355,144.553734 121.005464,144.786885 C120.11949,146.512204 119.606557,147.444809 119.606557,147.444809 C119.606557,147.444809 119.606557,147.444809 119.606557,147.491439 C118.907104,148.750455 118.16102,149.916211 117.787978,149.916211 C117.508197,149.916211 116.995264,146.558834 117.881239,141.989071 C119.746448,132.336612 124.176321,117.321676 124.12969,116.808743 C124.12969,116.528962 124.969035,113.917668 121.238616,112.565392 C117.601457,111.213115 116.295811,113.451366 115.969399,113.451366 C115.642987,113.451366 115.409836,114.24408 115.409836,114.24408 C115.409836,114.24408 119.466667,97.3639344 107.669217,97.3639344 C100.301639,97.3639344 90.1362477,105.430965 85.1001821,112.705282 C81.929326,114.430601 75.1679417,118.11439 67.940255,122.07796 C65.189071,123.616758 62.3446266,125.155556 59.6867031,126.601093 C59.5001821,126.414572 59.3136612,126.181421 59.1271403,125.9949 C44.8582878,110.746812 18.4655738,99.9752277 19.5846995,79.5045537 C20.0043716,72.0437158 22.5690346,52.4590164 70.2717668,28.6775956 C109.534426,9.32604736 140.776685,14.6885246 146.185792,26.579235 C153.926412,43.5526412 129.445537,75.0746812 88.8772313,79.6444444 C73.3959927,81.3697632 65.2823315,75.4010929 63.2306011,73.1628415 C61.0856102,70.8313297 60.7591985,70.691439 59.9664845,71.1577413 C58.6608379,71.8571949 59.5001821,73.9555556 59.9664845,75.1679417 C61.1788707,78.3387978 66.168306,83.9344262 74.6083789,86.6856102 C82.0692168,89.1103825 100.208379,90.4626594 122.17122,81.9759563 C146.745355,72.463388 165.957013,46.0240437 160.314754,23.8746812 C154.672495,1.3989071 117.368306,-6.01530055 82.0692168,6.52823315 C61.0856102,13.989071 38.3300546,25.7398907 21.9628415,41.0346084 C2.51803279,59.2204007 -0.559562842,75.028051 0.699453552,81.6495446 C5.22258652,105.151184 37.6306011,120.445902 50.5938069,131.777049 C49.9409836,132.150091 49.3347905,132.476503 48.8218579,132.756284 C42.340255,135.97377 17.6262295,148.890346 11.4710383,162.553005 C4.47650273,178.034244 12.5901639,189.13224 17.9526412,190.624408 C34.5996357,195.240801 51.7129326,186.940619 60.8990893,173.23133 C70.0852459,159.52204 68.9661202,141.70929 64.7227687,133.548998 C64.6761384,133.455738 64.6295082,133.362477 64.5362477,133.269217 C66.2149362,132.289982 67.940255,131.264117 69.6189435,130.284882 C72.9296903,128.326412 76.1938069,126.507832 78.9916211,125.015665 C77.4061931,129.352277 76.2404372,134.528233 75.6808743,141.989071 C74.9814208,150.755556 78.571949,162.133333 83.2816029,166.609836 C85.3799636,168.568306 87.8513661,168.614936 89.4367942,168.614936 C94.9391621,168.614936 97.4105647,164.045173 100.161749,158.636066 C103.519126,152.014572 106.550091,144.320583 106.550091,144.320583 C106.550091,144.320583 102.773042,165.117668 113.031694,165.117668 C116.762113,165.117668 120.539162,160.268124 122.217851,157.796721 L122.217851,157.843352 C122.217851,157.843352 122.311111,157.703461 122.497632,157.377049 C122.870674,156.770856 123.103825,156.397814 123.103825,156.397814 L123.103825,156.304554 C124.595993,153.69326 127.95337,147.77122 132.942805,137.93224 C139.377778,125.248816 145.579599,109.394536 145.579599,109.394536 C145.579599,109.394536 146.139162,113.264845 148.051002,119.699818 C149.170128,123.476867 151.501639,127.626958 153.366849,131.637158 C151.874681,133.735519 150.942077,134.901275 150.942077,134.901275 C150.942077,134.901275 150.942077,134.901275 150.988707,134.947905 C149.776321,136.533333 148.470674,138.258652 147.025137,139.937341 C141.942441,145.999271 135.88051,152.947177 135.041166,154.952277 C134.061931,157.330419 134.295082,159.055738 136.160291,160.454645 C137.512568,161.48051 139.937341,161.620401 142.408743,161.48051 C146.978506,161.154098 150.195993,160.034973 151.781421,159.335519 C154.252823,158.449545 157.143898,157.097268 159.848452,155.092168 C164.837887,151.408379 167.868852,146.139162 167.589071,139.191257 C167.44918,135.367577 166.190164,131.543898 164.651366,127.95337 C165.117668,127.300546 165.537341,126.647723 166.003643,125.9949 C173.884153,114.477231 179.992714,101.840437 179.992714,101.840437 C179.992714,101.840437 180.552277,105.710747 182.464117,112.145719 C183.396721,115.409836 185.308561,118.953734 186.98725,122.404372 C179.573042,128.419672 175.003279,135.414208 173.37122,139.983971 C170.433515,148.470674 172.718397,152.294353 177.055009,153.180328 C179.013479,153.6 181.811293,152.667395 183.863024,151.781421 C186.474317,150.942077 189.551913,149.496539 192.489617,147.351548 C197.479053,143.66776 202.281967,138.538434 202.002186,131.590528 C201.862295,128.419672 201.022951,125.295446 199.857195,122.264481 C206.152277,119.653188 214.265938,118.20765 224.617851,119.420036 C246.813843,122.03133 251.197086,135.88051 250.357741,141.70929 C249.518397,147.538069 244.855373,150.708925 243.316576,151.68816 C241.777778,152.667395 241.264845,152.993807 241.404736,153.69326 C241.591257,154.719126 242.337341,154.672495 243.642987,154.485974 C245.461566,154.159563 255.300546,149.776321 255.720219,139.051366 C256.419672,125.342077 243.363206,110.37377 220.281239,110.513661 L220.281239,110.513661 Z M49.0550091,168.241894 C41.6874317,176.262295 31.4287796,179.29326 26.9989071,176.728597 C22.242623,173.977413 24.1078324,162.133333 33.1540984,153.64663 C38.6564663,148.470674 45.7442623,143.66776 50.4539162,140.730055 C51.5264117,140.077231 53.1118397,139.144627 55.0236794,137.978871 C55.3500911,137.79235 55.536612,137.699089 55.536612,137.699089 L55.536612,137.699089 C55.9096539,137.465938 56.2826958,137.232787 56.6557377,136.999636 C59.9664845,149.123497 56.7956284,159.801821 49.0550091,168.241894 L49.0550091,168.241894 Z M102.679781,131.777049 C100.115118,138.025501 94.7526412,154.019672 91.4885246,153.133698 C88.6907104,152.387614 86.9653916,140.263752 90.9289617,128.279781 C92.9340619,122.264481 97.1774135,115.083424 99.648816,112.28561 C103.659016,107.809107 108.088889,106.31694 109.161384,108.135519 C110.513661,110.513661 104.265209,127.860109 102.679781,131.777049 L102.679781,131.777049 Z M146.931876,152.947177 C145.859381,153.50674 144.833515,153.879781 144.367213,153.6 C144.040801,153.413479 144.833515,152.667395 144.833515,152.667395 C144.833515,152.667395 150.382514,146.698725 152.574135,143.994171 C153.833151,142.408743 155.325319,140.543534 156.910747,138.445173 L156.910747,139.051366 C156.910747,146.185792 150.009472,150.988707 146.931876,152.947177 L146.931876,152.947177 Z M181.065209,145.159927 C180.272495,144.600364 180.412386,142.735155 183.07031,136.906375 C184.096175,134.621494 186.520947,130.797814 190.671038,127.114026 C191.137341,128.606193 191.463752,130.05173 191.417122,131.404007 C191.370492,140.403643 184.935519,143.76102 181.065209,145.159927 L181.065209,145.159927 Z"/>
    </g>
</symbol></svg>